<?xml version="1.0" encoding="UTF-8"?>
<svg id="Layer_1" xmlns="http://www.w3.org/2000/svg" version="1.1" viewBox="0 0 743.73 382.63">
  <!-- Generator: Adobe Illustrator 29.6.0, SVG Export Plug-In . SVG Version: 2.1.1 Build 207)  -->
  <defs>
    <style>
      .st0 {
        fill: #001a70;
      }
    </style>
  </defs>
  <path class="st0" d="M258.86,285.25l-12.39-25.86h-.1l-1.29,21.86c-.14,2.48,1.7,3,3.88,3.11v.89h-10.09v-.92c3.54,0,4-.78,4.22-5.19l1.17-18.89c.19-3.2.09-4.07-2.91-4.27v-.87h7.32l11.7,24.45,11.64-24.45h7.14v.87c-2.38.2-3.3.25-3.21,1.9l1.56,22c.29,4.46.68,4.46,4.22,4.46v.91h-12.47v-.92c2.28,0,4.51-.63,4.32-3.2l-1.41-21.74h-.1l-12.08,25.86h-1.12Z"/>
  <path class="st0" d="M296.71,285.25h-11.79v-.92c3-.15,3.64-.92,3.64-4.17v-20.67c0-2.62-.93-3.35-3.64-3.5v-.92h11.79v.92c-3.06,0-4.13.68-4.13,3.93v20.58c0,2.86.78,3.83,4.13,3.83v.92Z"/>
  <path class="st0" d="M331.84,285.59l-25.14-26.34v20.82c0,3.49.78,4.22,4.9,4.22v.96h-11.25v-.92h.19c3,0,4-1,4-3.25v-23.83c-1.2-.81-2.63-1.24-4.08-1.22v-.92h7.62l22.86,23.83v-19.36c0-3-.88-3.49-4.76-3.59v-.92h11.29v.92c-3.63,0-4.41.63-4.41,2.53v27.07h-1.22Z"/>
  <path class="st0" d="M352.31,285.25h-11.79v-.92c3-.15,3.64-.92,3.64-4.17v-20.67c0-2.62-.92-3.35-3.64-3.5v-.92h11.79v.92c-3.06,0-4.12.68-4.12,3.93v20.58c0,2.86.77,3.83,4.12,3.83v.92Z"/>
  <path class="st0" d="M357.55,277.88c.76,3.94,4.19,6.8,8.2,6.84,3.25,0,6.7-1.89,6.7-5.73,0-7-15.58-9.12-15.58-17.61,0-4,3.69-7,8.64-7,4.08,0,4.9,1.22,6.6,1.22.36.02.7-.17.87-.49h.78l.82,6.16h-.82c-1.18-3.33-4.28-5.6-7.81-5.72-3.21,0-5.44,1.84-5.44,4.56,0,6.89,15.58,8.73,15.58,17.66,0,4.76-4.22,8.3-9.9,8.3-2.67,0-6.07-1.31-6.75-1.31-.4,0-.78.19-1,.53h-.82l-1-7.37.93-.04Z"/>
  <path class="st0" d="M396.71,280.79c0,2.62.87,3.54,3.83,3.54h1.8v.92h-15.29v-.92h1.8c3,0,3.83-.92,3.83-3.54v-24h-8.44c-1.94,0-2.82,1.11-3.54,5.38h-.88l.78-7.86h.92c.05.28.25.51.53.59.32.1.66.14,1,.14h23.34c.68,0,1.41-.14,1.51-.73h.92l.78,7.86h-.88c-.72-4.27-1.6-5.38-3.54-5.38h-8.44l-.03,24Z"/>
  <path class="st0" d="M433.63,274.33h-.92c-.39-3.44-1.31-3.83-3.3-3.83h-8.2v10.34c0,2.23.82,2.67,2.62,2.67h7.47c3.4,0,4.42-1.32,5.63-5.49h.87l-.77,7.23h-25.77v-.92h1.36c3.88,0,4.56-1.07,4.56-4v-20.46c0-2.71-.63-3.88-3.88-3.88h-1.07v-.92h23.29l.39,6.75h-.87c-.63-4.13-1.85-5-3.59-5h-10.24v11.93h8.68c1.75,0,2.58-.82,2.82-3.64h.92v9.22Z"/>
  <path class="st0" d="M449.59,280.69c0,2.91,1.17,3.64,3.89,3.64h1.11v.92h-13.73v-.92h.82c2.87,0,3.89-.78,3.89-4v-20.46c0-3-.83-3.88-3.64-3.88h-1.07v-.92c1.16,0,4.12-.19,6.11-.29s3-.15,6.12-.15c9,0,13,3.69,13,8.64,0,3.64-2.47,6.7-6.45,7.86,1.95,1.57,3.79,3.25,5.53,5.05l3.83,3.83c2.87,2.86,5.83,4.66,9.56,4.9v.88c-8.49.38-10.67-1.46-15-5.78l-3.2-3.2c-1.53-1.59-3.21-3.04-5-4.32-1.21,0-2,.1-3.3.1-1.07,0-1.7-.05-2.48-.1v8.2ZM449.59,271.57c1,.1,2,.14,3,.1,5.39,0,8.93-2.29,8.93-8.11,0-4.51-2-8-9.51-8-.81-.02-1.62.01-2.43.09v15.92Z"/>
  <path class="st0" d="M492.82,285.25h-11.79v-.92c3-.15,3.64-.92,3.64-4.17v-20.67c0-2.62-.92-3.35-3.64-3.5v-.92h11.79v.92c-3.05,0-4.12.68-4.12,3.93v20.58c0,2.86.78,3.83,4.12,3.83v.92Z"/>
  <path class="st0" d="M515.1,286.03c-9.51,0-17.52-6.12-17.52-15.19,0-9.66,7.42-16.5,17.76-16.5,9.17,0,17,6.26,17,15,.03,9.8-7.87,16.69-17.24,16.69ZM514.1,255.56c-8.54,0-11.94,7.95-11.94,13.78,0,9.07,6.16,15.48,14,15.48s11.69-7,11.69-13.88c-.04-9.03-5.77-15.38-13.77-15.38h.02Z"/>
  <path class="st0" d="M198.7,316.65c0-3.15-.83-3.93-3.69-3.93h-1v-.92c1.79-.1,4.17-.2,6.84-.29s5.63-.15,8.15-.15c12.81,0,18.49,6.5,18.49,14.51,0,7.33-5.68,16.11-18,16.11h-15.45v-.92h.82c2.62,0,3.84-.73,3.84-3.55v-20.86ZM202.7,338.39c0,2,.15,2.67,4,2.67,6.51,0,9.22-.93,12.23-3.93,2.64-2.84,4.07-6.6,4-10.48.13-3.86-1.26-7.61-3.88-10.44-2.24-2.23-5.68-3.93-12.47-3.93-1.3,0-2.6.07-3.89.2v25.91Z"/>
  <path class="st0" d="M252.7,331.06h-.92c-.39-3.44-1.31-3.83-3.3-3.83h-8.2v10.33c0,2.24.82,2.67,2.62,2.67h7.47c3.4,0,4.42-1.31,5.63-5.48h.87l-.77,7.23h-25.77v-.92h1.36c3.88,0,4.56-1.07,4.56-4v-20.46c0-2.72-.63-3.88-3.88-3.88h-1.07v-.92h23.29l.39,6.74h-.87c-.63-4.12-1.85-5-3.59-5h-10.24v11.94h8.68c1.75,0,2.58-.82,2.82-3.64h.92v9.22Z"/>
  <path class="st0" d="M295.01,331.06h-.92c-.39-3.44-1.31-3.83-3.3-3.83h-8.2v10.33c0,2.24.82,2.67,2.62,2.67h7.47c3.4,0,4.42-1.31,5.63-5.48h.87l-.77,7.23h-25.77v-.92h1.36c3.88,0,4.56-1.07,4.56-4v-20.46c0-2.72-.63-3.88-3.88-3.88h-1.07v-.92h23.29l.39,6.74h-.87c-.63-4.12-1.85-5-3.59-5h-10.24v11.94h8.68c1.75,0,2.58-.82,2.82-3.64h.92v9.22Z"/>
  <path class="st0" d="M306.7,316.65c0-3.15-.82-3.93-3.69-3.93h-1v-.92c1.8-.1,4.18-.2,6.85-.29s5.62-.15,8.15-.15c12.81,0,18.48,6.5,18.48,14.51,0,7.33-5.67,16.11-18,16.11h-15.45v-.92h.83c2.62,0,3.83-.73,3.83-3.55v-20.86ZM310.7,338.39c0,2,.15,2.67,4,2.67,6.5,0,9.22-.93,12.23-3.93,2.64-2.84,4.07-6.6,4-10.48.13-3.86-1.26-7.61-3.88-10.44-2.23-2.23-5.68-3.93-12.47-3.93-1.3,0-2.59.07-3.88.2v25.91Z"/>
  <path class="st0" d="M376.04,311.8v.95c-3.25.05-4.42,1.36-4.42,4.46v13.1c0,6-3.83,12.48-14.36,12.48-9.27,0-14-5.29-14-12.23v-14.2c0-3.11-.88-3.59-4.17-3.64v-.92h12.45v.95h-.44c-2.67,0-3.83.73-3.83,3.54v13.46c0,6.55,3.83,10.48,11.06,10.48,5.48,0,11.06-2.28,11.06-10.53v-11.3c0-4.66-.73-5.49-4.75-5.68v-.92h11.4Z"/>
  <path class="st0" d="M407.92,319.75c-1.67-4.64-6.15-7.66-11.07-7.48-8.1,0-13.15,5.87-13.15,14,0,8.78,6.31,15.23,13.69,15.23,3.83,0,8.54-1.31,11.84-7.18h.92c-.75,2.47-1.8,4.85-3.11,7.08-3.1-.43-5.24,1.32-11,1.32-9.85,0-16.94-6.51-16.94-15.48,0-9.42,7.28-16.21,17.42-16.21,6.12,0,8.74,1.94,10.24,1.94.53,0,.78-.15.87-.29h.73l.44,7-.88.07Z"/>
  <path class="st0" d="M422.04,328.59l-2.82,7.61c-.45.98-.79,2-1,3.06,0,1.31,1.26,1.8,3.93,1.8h.78v.92h-11.18v-.92c3.15-.05,3.69-.59,5.24-4.81l8.83-24.11-.44-1.07h4.22l10.15,26.93c1,2.57,2,3.06,4.41,3.06v.92h-13.34v-.92h1.26c2.77,0,3.78-.29,3.78-1.65-.05-.69-.23-1.37-.53-2l-3.25-8.83h-10.04ZM426.98,315.15l-4.12,11.3h8.39l-4.27-11.3Z"/>
  <path class="st0" d="M473.76,319.75c-1.67-4.63-6.14-7.66-11.06-7.48-8.11,0-13.15,5.87-13.15,14,0,8.78,6.3,15.23,13.68,15.23,3.83,0,8.54-1.31,11.84-7.18h.92c-.75,2.47-1.79,4.85-3.1,7.08-3.11-.43-5.25,1.32-11,1.32-9.85,0-16.94-6.51-16.94-15.48,0-9.42,7.28-16.21,17.42-16.21,6.12,0,8.74,1.94,10.24,1.94.54,0,.78-.15.88-.29h.72l.44,7-.89.07Z"/>
  <path class="st0" d="M491.81,341.98h-11.79v-.92c3-.15,3.63-.93,3.63-4.18v-20.67c0-2.62-.92-3.35-3.63-3.49v-.92h11.79v.95c-3.06,0-4.13.68-4.13,3.93v20.57c0,2.87.78,3.84,4.13,3.84v.89Z"/>
  <path class="st0" d="M514.08,342.75c-9.54,0-17.54-6.11-17.54-15.18,0-9.66,7.43-16.5,17.76-16.5,9.17,0,17,6.26,17,15,.05,9.79-7.76,16.68-17.22,16.68ZM513.08,312.27c-8.54,0-11.94,8-11.94,13.78,0,9.08,6.16,15.48,14,15.48s11.69-7,11.69-13.88c-.04-9.01-5.76-15.37-13.77-15.37h.02ZM509.29,307.95l4.47-6.16c.67-1.13,1.8-1.91,3.1-2.13.77-.06,1.44.51,1.51,1.29,0,.04,0,.08,0,.11,0,.93-1,1.9-3.3,3.45l-5.14,3.44h-.64Z"/>
  <path class="st0" d="M566.87,342.32l-25.14-26.3v20.82c0,3.49.78,4.22,4.9,4.22v.92h-11.25v-.92h.16c3,0,4-1,4-3.25v-23.88c-1.21-.81-2.63-1.23-4.08-1.21v-.92h7.62l22.86,23.82v-19.31c0-3-.88-3.49-4.76-3.59v-.92h11.36v.95c-3.64,0-4.42.63-4.42,2.52v27.08l-1.25-.03Z"/>
  <polygon class="st0" points="391.1 61.31 393.55 66.27 399.03 67.07 395.07 70.93 396 76.39 391.1 73.81 386.2 76.39 387.13 70.93 383.17 67.07 388.65 66.27 391.1 61.31"/>
  <polygon class="st0" points="427.13 70.51 429.58 75.47 435.06 76.27 431.09 80.13 432.03 85.59 427.13 83.01 422.23 85.59 423.16 80.13 419.2 76.27 424.68 75.47 427.13 70.51"/>
  <polygon class="st0" points="454.75 92.87 457.21 97.83 462.69 98.63 458.72 102.49 459.66 107.95 454.75 105.37 449.85 107.95 450.79 102.49 446.82 98.63 452.3 97.83 454.75 92.87"/>
  <polygon class="st0" points="470.54 124.88 472.98 129.84 478.47 130.64 474.5 134.5 475.44 139.96 470.54 137.38 465.63 139.96 466.57 134.5 462.6 130.64 468.08 129.84 470.54 124.88"/>
  <polygon class="st0" points="471.14 162.04 473.59 167 479.07 167.79 475.11 171.66 476.04 177.11 471.14 174.54 466.24 177.11 467.17 171.66 463.21 167.79 468.69 167 471.14 162.04"/>
  <polygon class="st0" points="454.79 194.2 457.24 199.16 462.72 199.96 458.75 203.82 459.69 209.28 454.79 206.7 449.88 209.28 450.82 203.82 446.85 199.96 452.34 199.16 454.79 194.2"/>
  <polygon class="st0" points="427.3 216.58 429.75 221.54 435.23 222.33 431.27 226.2 432.2 231.65 427.3 229.08 422.4 231.65 423.33 226.2 419.37 222.33 424.85 221.54 427.3 216.58"/>
  <polygon class="st0" points="391.08 224.43 393.53 229.4 399.02 230.19 395.05 234.06 395.99 239.51 391.08 236.93 386.18 239.51 387.12 234.06 383.15 230.19 388.63 229.4 391.08 224.43"/>
  <polygon class="st0" points="355.67 216.6 358.12 221.56 363.6 222.36 359.64 226.22 360.57 231.68 355.67 229.1 350.77 231.68 351.7 226.22 347.74 222.36 353.22 221.56 355.67 216.6"/>
  <polygon class="st0" points="328.17 194.24 330.62 199.2 336.1 200 332.14 203.86 333.07 209.32 328.17 206.74 323.27 209.32 324.2 203.86 320.24 200 325.72 199.2 328.17 194.24"/>
  <polygon class="st0" points="311.8 162.27 314.25 167.24 319.73 168.03 315.76 171.9 316.7 177.35 311.8 174.78 306.89 177.35 307.83 171.9 303.86 168.03 309.34 167.24 311.8 162.27"/>
  <polygon class="st0" points="311.8 124.88 314.25 129.84 319.73 130.64 315.76 134.5 316.7 139.96 311.8 137.38 306.89 139.96 307.83 134.5 303.86 130.64 309.34 129.84 311.8 124.88"/>
  <polygon class="st0" points="327.34 92.91 329.79 97.87 335.27 98.67 331.31 102.53 332.24 107.99 327.34 105.41 322.44 107.99 323.37 102.53 319.41 98.67 324.89 97.87 327.34 92.91"/>
  <polygon class="st0" points="355.62 70.53 358.07 75.49 363.56 76.29 359.59 80.15 360.53 85.61 355.62 83.03 350.72 85.61 351.66 80.15 347.69 76.29 353.17 75.49 355.62 70.53"/>
  <path class="st0" d="M433.11,163.3h-.08c-.38,0-.68.3-.68.68s.3.68.68.68h.16c.38,0,.68-.3.68-.68s-.3-.68-.68-.68h-.08"/>
  <path class="st0" d="M440.64,153.76c-.59.1-1.15.31-1.66.62-.3.2-.64.33-1,.39.2-.4.28-.85.24-1.3-.12-1.25-.12-3.29-.12-3.29,0,0-.41,1.24-1,1.54s-1.75.71-1.95,1.13-1,.41-1.37,1.65c-.07.54-.24,1.06-.5,1.54-.08.14-.17.28-.26.42.4-1.79.63-3.62.68-5.45v-.85c.25-.21.49-.44.71-.68.26-.43,3.44-1.52,3.88-2.38s.68-1.42.89-1.77c.31-.73.48-1.52.5-2.31-.03-1.06-.15-2.12-.36-3.16-.49.25-.93.59-1.3,1-.09.14-.21.26-.35.36,0-.3-.05-.6-.15-.88-.44-1.1-1.12-2.55-1.12-2.55,0,0-.59.92-.92,1.48-.53,1.07-1.07,1.15-1.16,1.57s-.71.71-.94,1.57c-.07.22-.12.45-.16.68-.24-1.83-.54-3.49-.89-5,.16-.48.33-1.53.76-1.88.54-.54.81-1.31.71-2.07-.02-.66-.12-1.32-.3-1.95-.09-.5-1.66-2.66-1.54-3.28,0,0-.77,1.75-1.06,2.43-.78-.78-1.66-1.45-2.61-2-.38-.68-.78-1.36-1.19-2,0-.2.06-.62.13-1.07.19-.7.23-1.44.11-2.16-.2-.5-.62-.92-.82-1.54-.12-.58-.41-1.12-.83-1.54-.51-.53-1.24-1.24-1.24-1.24,0,0-.21.91-.4,1.65-.17-.08-.34-.15-.52-.2-.12,0-.38-.18-.67-.34-.36-.48-.7-.94-1-1.35.19-.12.31-.33.31-.56,0-.38-.3-.68-.68-.68s-.68.3-.68.68h0c-.01.36.28.67.64.68.01,0,.03,0,.04,0,.13,0,.26-.04.37-.11l.76,1.2c-.33-.19-.66-.37-.81-.47s-.41,1.86.21,3l-.29-.08c-.77-.19-1.57-.26-2.37-.2.29,0,1,.8,1.12,1.21.26.62.7,1.16,1.25,1.54.56.31,1.07.7,1.53,1.15.81.41,1.71.58,2.61.5.27.17.59.25.91.23l1.13,2c-.15.58-.23,1.17-.24,1.77h0c-.5-.08-2.25-.5-2.25-.5.1.92.41,1.8.9,2.58-.1.09-.17.22-.2.35-.03.22.02.44.15.62.25.36.59.65,1,.81l-8.46,5.95c.4-7.28.13-14.58-.83-21.81,1-.38.75-.85.75-.85l-.4-1c.1.05.22.08.33.08.18,0,.36-.07.48-.2.23-.31.18-.75-.11-1-.18-.2-.41-.36-.65-.47l1.2-.18.69-2.91h0l-2.83,1-.07,1.22c-.13-.23-.3-.44-.51-.6-.22-.32-.65-.4-.97-.18-.32.22-.4.65-.18.97.06.09.14.16.23.21.28.26.63.45,1,.55v.07l-14.09,15.52-9.42-15.73c.58-3.82-1.46-9.61-1.55-9.84.13-.51.18-1.04.17-1.57.43-.13.76-.46.89-.89h0c-.34-.43-.71-.83-1.09-1.22.17.04.34.06.51.07h.07c.38.07.74-.19.81-.57.07-.38-.19-.74-.57-.81-.08-.01-.16-.01-.24,0h0c-.27-.01-.54.02-.8.1l.78-1-1.46-2.61h0l-1.45,2.62.78.94c-.25-.08-.52-.11-.78-.1-.22,0-.44.09-.6.24-.12.12-.19.28-.19.45,0,.17.07.33.19.45.16.16.37.24.59.24h.07c.14.01.27.01.41,0-.27.26-.52.53-.76.82-.08.07-.15.15-.2.24v.22c.1.21.25.39.44.52-1.08,2-3.74,7.82-2.2,13.87l-8.14,13.56-14.23-15.69c.42-.07.82-.26,1.13-.56.17-.14.27-.36.28-.58.02-.17-.04-.34-.16-.46-.11-.12-.27-.2-.44-.2-.22,0-.43.07-.59.21-.21.17-.39.38-.53.61l-.06-1.22-2.84-1h0l.7,2.91,1.2.18c-.24.11-.46.26-.64.46-.17.14-.27.36-.28.58-.02.17.04.34.16.46.12.12.27.19.44.2h0c.11,0,.22-.03.33-.07l-.4,1s-.28.47.75.85c-.96,7.23-1.23,14.53-.83,21.81l-8.45-5.9c.41-.16.76-.44,1-.81.12-.16.17-.35.16-.55-.01-.15-.08-.3-.19-.41.5-.78.8-1.67.9-2.59,0,0-1.74.42-2.25.5h0c0-.6-.09-1.19-.24-1.77l1.13-2c.32.02.64-.06.91-.23.9.09,1.8-.09,2.6-.5.46-.45.98-.83,1.54-1.15.55-.38.98-.92,1.24-1.54.09-.41.83-1.21,1.13-1.21-.8-.06-1.6,0-2.37.2l-.29.08c.62-1.12.47-3.15.2-3s-.47.28-.8.47l.76-1.2c.32.2.74.11.94-.2s.11-.74-.2-.94c-.32-.2-.74-.11-.94.2-.07.11-.11.24-.11.37,0,.23.11.44.31.56-.33.41-.67.87-1,1.35-.29.16-.55.29-.67.34-.18.05-.36.12-.53.2-.19-.74-.39-1.65-.39-1.65,0,0-.74.71-1.24,1.24-.42.42-.71.96-.83,1.54-.21.62-.62,1-.83,1.54-.12.72-.08,1.46.12,2.16.07.45.11.87.13,1.07-.41.67-.81,1.33-1.2,2-.95.55-1.82,1.22-2.6,2-.29-.68-1.06-2.43-1.06-2.43.11.62-1.45,2.78-1.54,3.28-.18.63-.28,1.29-.3,1.95-.1.76.16,1.53.71,2.07.43.35.6,1.4.75,1.88-.34,1.5-.64,3.16-.88,5,0-.16-.08-.38-.16-.68-.24-.86-.89-1.13-1-1.57s-.62-.5-1.15-1.57c-.33-.56-.92-1.48-.92-1.48,0,0-.68,1.45-1.12,2.55-.11.28-.16.58-.15.88-.14-.1-.26-.22-.36-.36-.36-.42-.81-.76-1.3-1-.2,1.04-.32,2.1-.35,3.16.01.8.18,1.58.5,2.31.21.35.44.95.89,1.77s3.61,1.95,3.88,2.38c.22.24.46.47.71.68v.85c.05,1.83.27,3.66.67,5.45-.09-.13-.17-.28-.25-.42-.26-.48-.43-1-.51-1.54-.32-1.24-1.15-1.24-1.36-1.65s-1.33-.84-2-1.13-1-1.54-1-1.54c0,0,0,2-.11,3.29-.04.45.04.9.24,1.3-.36-.06-.7-.19-1-.39-.5-.31-1.06-.52-1.65-.62.14,1.11.34,2.2.62,3.28.26.8.68,1.53,1.24,2.16.29.32.71.83,1.42,1.54s2.59.88,4.65,1.56c.59.19,1.1.57,1.44,1.09.08.26.14.49.18.66.23.9.53,2,.89,3.17-.72-.72-1.7-1.12-2.72-1.13-.71-.12-3.49-.83-3.49-.83.66.49,1.07,1.85,1.48,3.08-1.07-.19-2.16-.19-3.23,0,.3.2,2.46,2.07,2.75,3.1.42,1.11,1.01,2.15,1.75,3.08.33.21,1.24,1.33,1.87,2s3.07.3,3.9.3c.65.12,1.28.32,1.88.6.78.98,1.66,1.9,2.61,2.72-.85-.34-1.62-.85-2.27-1.49-.4-.54.06,1.82.52,2.59-.63-.01-1.25-.19-1.79-.52-.68-.53-.09,1.87.65,2.55,1.59,1.41,1.44,1.64,1.7,1.73-1.34.27-3.21.73-3.78.39-.74-.41.83,1,1.78,1.39,1.36.51,1.18,1.39,2.66,1.87s3.23,1.12,4.14.94c.73-.25,1.49-.44,2.25-.56.9-.11,2.42-1.3,4.15-1.52,1.62,1,3.29,1.92,5,2.76l.27.13c-.2.01-.4.04-.59.08-.62.15-3.16.71-3.78.41s.64,1.37,1.4,2c-1.14.26-2.31.34-3.48.26-.82-.18,1.66,2.22,2.64,2.49h.11c-.6.23-1.24.38-1.88.43-.86-.06,2.72,2.27,3.69,2.13,3.14-.45,6.1.62,7.55,0,1.3-.51,2.07-.86,2.72-1.07s1-.83,1.42-1.12c.44-.53.99-.97,1.61-1.28l.06.1c1.1.07,2.21.07,3.31,0-.49.19-.95.47-1.35.81-1.62.51-2.92.94-3.34,1.15-1.89,1.25-3.65,2.69-5.23,4.32,0,0,2.66-.21,3.07-.21s1.34-1.83,1.75-2.16c.12-.08.8-.43,1.79-.89-1.82,2.92.83,5.32.83,5.32-.71-.83.09-2.28.09-2.28l1.45.92c-1.82-3.12,1-5.2,1.93-5.78l.29-.11c.26.38.69.61,1.15.63.44-.02.85-.23,1.11-.59l.56.22c1.08.73,3.39,2.73,1.7,5.63l1.45-.92s.8,1.45.09,2.28c0,0,2.59-2.34.89-5.22.88.41,1.47.71,1.58.79.41.33,1.33,2.16,1.74,2.16s3.08.21,3.08.21c-1.58-1.63-3.34-3.08-5.24-4.32-1.01-.41-2.04-.77-3.09-1.07-.42-.38-.91-.68-1.44-.89,1.1.07,2.21.07,3.31,0h0c.57.31,1.08.72,1.5,1.21.41.29.76.89,1.42,1.12s1.42.56,2.72,1.07c1.45.59,4.41-.48,7.54,0,1,.14,4.56-2.19,3.7-2.13-.65-.05-1.28-.2-1.89-.43h.12c1-.27,3.46-2.67,2.63-2.49-1.16.08-2.33,0-3.47-.26.76-.62,2-2.28,1.4-2s-3.17-.26-3.79-.41c-.19-.04-.39-.07-.58-.08l.26-.13c1.71-.83,3.38-1.75,5-2.76,1.73.22,3.26,1.41,4.15,1.52.76.12,1.52.31,2.25.56.92.18,2.58-.44,4.14-.94s1.31-1.36,2.67-1.87c.94-.35,2.51-1.8,1.77-1.39-.57.34-2.43-.12-3.77-.39.25-.09.11-.32,1.7-1.73.74-.68,1.33-3.08.65-2.55-.54.33-1.16.5-1.79.52.46-.77.92-3.13.51-2.59-.65.64-1.42,1.15-2.26,1.49.95-.83,1.82-1.74,2.61-2.72.6-.28,1.23-.48,1.88-.6.83,0,3.28.32,3.9-.3s1.54-1.74,1.87-2c.74-.93,1.33-1.97,1.74-3.08.3-1,2.46-2.9,2.75-3.1-1.06-.19-2.16-.19-3.22,0,.41-1.23.81-2.59,1.48-3.08,0,0-2.78.71-3.49.83-1.15.18-2.15.36-2.72,1.13.35-1.18.65-2.27.89-3.17,0-.17.1-.4.18-.66.34-.52.85-.9,1.44-1.09,2-.68,3.91-.83,4.65-1.56s1.12-1.22,1.42-1.54c.55-.63.98-1.36,1.24-2.16.28-1.08.48-2.17.62-3.28M433.1,151.75c-.11,1.41-.32,2.81-.64,4.19-.04-.59-.2-1.16-.47-1.68-.29-.62-.71-.62-.91-1.24s-.92-.83-1.33-1.33c-.34-.38-.72-.73-1.12-1.05-.29,1.28-.36,2.6-.2,3.9.07.2.12.41.15.62l-.57-.21c-.54,1.21.09,2.45.29,3.58.19.5.43.99.71,1.45.21.41.12.79.33,1.12s.64.31,1.11.74c0,.55.08,1.09.25,1.61-.4,1.32-.84,2.67-1.3,4-.05-.51-.22-.99-.5-1.42-.4-.49-.71-1.05-.91-1.65-.42-1.13-1.24-1.13-1.36-2.25-.18.81-.31,1.63-.39,2.45-.07.72,0,1.46.18,2.16.03.47-.03.94-.18,1.38,0-.62-.14-1.23-.41-1.79-.2-.38-.28-.81-.21-1.24-.45.75-.98,1.46-1.58,2.09l-.38-.65c5.39-9.43,4.13-25.58,3.93-27.79.87-.19.72-.64.72-.64l-.17-1.05c.08.06.17.11.27.13h.19c.13,0,.25-.04.36-.11.16-.12.26-.3.27-.49h0c.3.37.67.68,1.1.89.74.2,1.36.53,1.45.83h0c.47,1.93.82,3.89,1.05,5.87h0c-.83-.92-1-2.66-2.87-3.61.05.42.05.83,0,1.25-.12.53-.18,1.07-.17,1.61-.55-.37-1.03-.83-1.41-1.38-.16,1.31-.02,2.65.42,3.9.73,1.33.73,2,1.53,2.34.46.16.88.41,1.24.74.37.27.8.44,1.25.5.11,0,.21.07.27.16.04.21.1.42.16.62v1.53M361.55,140.64l5.47,3.85c-.08,2.05.19,4.1.78,6.06l-4.54,7.59c-.76-1.63-2.67-7-1.71-17.5M353.11,136.17c.22-.36.58-.62,1-.71.02.41-.11.82-.36,1.15-.07.1-.17.17-.29.21-.09.04-.19.04-.28,0-.07-.06-.12-.15-.13-.24,0-.13.03-.26.11-.37M371.16,123.55l4.35,4.8c-.1,1.32-.28,5.45.86,8l-4,6.63c-1-1.92-2.91-7.59-1.25-19.47M388.12,120.41c1.93-.33,3.9-.33,5.83,0l.62,1c-2.33-.52-4.74-.52-7.07,0l.62-1ZM388.62,119.58l2.42-4,2.41,4c-1.6-.21-3.23-.21-4.83,0M386.96,122.36c2.67-.73,5.48-.73,8.15,0l.67,1.12c-3.07-1.08-6.43-1.08-9.5,0l.68-1.12ZM385.56,124.64c3.44-1.48,7.35-1.48,10.79,0l16.73,27.95h-6.14c-.28-.17-.55-.36-.8-.56-.09-.08-.19-.15-.29-.22-.4-.26-.9-.36-1.37-.26-.25.05-.49.14-.72.26-.23.12-.44.26-.64.42h-.07c-.11-.03-.21-.08-.31-.13-.55-.27-1.05-.6-1.51-1-.15-.12-.31-.23-.48-.32-.28-.15-.6-.23-.92-.23-.22,0-.44.04-.65.1-.3.09-.59.23-.85.4-.18.11-.35.23-.52.36h-.06c-.32-.2-.65-.36-1-.5-.31-.13-.61-.28-.89-.45-.4-.24-.78-.51-1.14-.82-.13-.11-.27-.2-.41-.28-.3-.18-.65-.29-1-.31-.23-.03-.47-.03-.7,0-.31.07-.62.19-.9.34-.15.08-.29.18-.44.28v-9.69c1-.07,1.81-.42,1.81-.85s-.73-3.35-1.71-4c-.59-.42-1.38-.44-2-.06,0,0-1.28.74-.62,1.78,0,0,.13.31.69.09.24-.1.4-.31.45-.56v.26c0,.36-.5.55-.52.57-.25.65-.42,1.32-.52,2,0,.43.8.79,1.83.85v9.82l-.1-.05c-.42-.26-.83-.55-1.21-.87-.14-.12-.28-.22-.44-.31-.31-.18-.65-.29-1-.32-.27-.04-.55-.04-.82,0-.33.07-.64.19-.94.35-.31.17-.6.36-.88.57-.02,0-.05,0-.07,0h-.07l-.38-.22c-.18-.1-.37-.19-.56-.26-.25-.09-.49-.2-.73-.33-.68-.36-1.33-.79-1.92-1.29l-.17-.13c-.45-.36-1-.58-1.58-.63h-.45c-.37.03-.74.13-1.09.27-.4.17-.78.37-1.13.62-.4.29-.77.6-1.13.94-.45.44-.87.91-1.27,1.4-.38.48-.74,1-1.07,1.49l-.06.08c-.24.29-.5.58-.77.85s-.34.31-.51.47h-3.42l16.65-27.87ZM409.64,142.99l-4-6.62c1.13-2.59.95-6.72.86-8l4.35-4.8c1.65,11.86-.3,17.54-1.25,19.46M427.87,135.52c.4.11.74.37.95.73.08.1.11.22.1.35,0,.1-.05.18-.13.24-.09.04-.18.04-.27,0-.12-.04-.23-.11-.3-.22-.25-.32-.38-.73-.35-1.14M418.67,158.15l-4.54-7.59c.58-1.94.84-3.97.77-6l5.48-3.85c1,10.53-.95,15.85-1.71,17.49M360,167.36l4.27-7.14h51.8-.06l-.27-.14c-.31-.19-.6-.4-.88-.62-.51-.4-1-.83-1.47-1.27-.68-.64-1.34-1.31-2-2-.42-.45-.84-.89-1.25-1.36-.18-.2-.36-.39-.56-.57-.34-.34-.72-.64-1.13-.9-.18-.11-.37-.21-.56-.3h5.46l8.56,14.32-61.91-.02ZM368.56,153.04h3.17c-.61.53-1.25,1.03-1.91,1.49l-.18.11c-.34.22-.68.46-1,.71-.54.41-1,.85-1.56,1.3s-1,.91-1.47,1.38l2.95-4.99ZM390.83,151.1l.37.16c.14.05.27.11.4.18.37.2.72.43,1.05.69.55.43,1.05.91,1.51,1.43.7.79,1.42,1.56,2.16,2.32l.91.93c.78.77,1.58,1.53,2.4,2.25l.16.13h-4s-.08.01-.12,0l-.27-.21c-.56-.44-1.11-.91-1.64-1.38s-1.21-1.12-1.79-1.69c-1.28-1.26-2.52-2.55-3.73-3.88-.21-.23-.41-.46-.63-.69-.46-.5-.96-.96-1.49-1.37h-.06c.25-.19.53-.35.83-.46.16-.07.33-.11.51-.14.31-.04.62.01.9.16.13.07.25.16.37.25.32.26.65.5,1,.72.38.25.77.48,1.18.67M407.18,153.86l.19.08c.15.06.3.14.44.22.38.23.74.5,1.06.81.21.19.41.39.6.61.38.43.76.85,1.16,1.26l1.08,1.1c.44.45.89.87,1.35,1.29,0,0,.05,0,.06.07h-2.28c-.05,0-.1-.02-.14-.05-.42-.35-.84-.71-1.24-1.08s-.78-.73-1.16-1.11c-.84-.83-1.65-1.68-2.44-2.56-.17-.18-.33-.37-.51-.55-.39-.4-.81-.77-1.27-1.09h-.06c.19-.13.4-.22.62-.27.22-.05.44-.01.63.1.08.05.15.11.22.17.51.4,1.07.74,1.67,1M404.1,154.16c.31.26.6.55.87.86.58.65,1.18,1.29,1.79,1.93s1.11,1.12,1.69,1.66l.69.63.06.06h-3.22s-.07.02-.11,0l-.63-.51c-.59-.51-1.17-1-1.73-1.57l-1-1c-.84-.84-1.65-1.7-2.45-2.58l-.53-.58c-.29-.31-.6-.6-.93-.87h0c.21-.16.44-.29.68-.39.15-.06.32-.1.48-.11.18,0,.35.03.51.11.11.06.21.13.3.21.49.39,1.03.72,1.59,1,.16.08.32.15.49.21.15.06.3.14.44.22.35.22.69.47,1,.74M399.18,154.18c.45.51.91,1.01,1.38,1.5.42.45.85.89,1.29,1.33.74.74,1.49,1.47,2.28,2.16l.18.15h-2.87s-.09.01-.13,0l-.63-.51c-.67-.57-1.32-1.16-2-1.77l-1-1c-.9-.9-1.78-1.83-2.64-2.77-.2-.22-.39-.44-.6-.66-.51-.53-1.06-1.01-1.66-1.44-.29-.19-.59-.37-.9-.53h0c.26-.17.55-.29.85-.37.15-.02.31-.02.46,0,.18.02.36.07.52.16.12.07.24.16.35.25.61.5,1.29.93,2,1.28l.31.14c.18.06.36.15.52.25.38.22.73.47,1.07.75.42.36.82.75,1.19,1.16M386.57,151.64c.28.28.54.57.8.86l.88,1c.53.57,1.07,1.14,1.61,1.69,1,1,2,2,3,2.91.39.36.79.72,1.21,1.06l.06.06h-28.32v-.05l.39-.39c.42-.42.85-.83,1.29-1.23.53-.48,1.07-.95,1.64-1.39.35-.26.71-.51,1.08-.73l.31-.21c.9-.62,1.75-1.31,2.54-2.06.46-.42.89-.88,1.28-1.37.03-.03.05-.06.07-.1.33-.53.7-1.04,1.1-1.52.31-.39.65-.77,1-1.12.37-.37.77-.71,1.2-1,.28-.2.58-.36.9-.48.21-.09.43-.15.66-.18.39-.04.79.03,1.14.22.15.09.3.19.44.3.32.27.65.52,1,.75.4.27.81.51,1.24.73.23.11.46.22.69.31.16.06.31.13.46.21.39.22.77.47,1.13.74.41.31.8.65,1.17,1M380.15,169.18c1.37,1.01,2.92,1.76,4.56,2.2-1.09.33-8.22,2.21-14.31-2.2h9.75ZM389.87,174.96s.67-3.55,1.07-5.78h0c.39,2.23,1.07,5.78,1.07,5.78.15,1.2-.24,2.41-1.07,3.3-.84-.88-1.23-2.09-1.07-3.3M401.74,169.18h9.75c-6.09,4.41-13.22,2.53-14.32,2.2,1.65-.44,3.2-1.18,4.57-2.2M426.54,134.25c-.08-.11-.11-.25-.09-.39.02-.07.05-.13.1-.18l.09.07c.34.22.64.52.86.86.03.12.03.25,0,.37-.41-.11-.77-.37-1-.73M418.84,117.19c-.18.15-.45.13-.6-.05-.29-.26-.49-.61-.57-1v-.06c.38.03.74.21,1,.5.19.13.23.39.1.58M417.96,114.36l1.1-.38h0l-.27,1.13-.88.13.05-.88ZM415.96,114.57c.06-.07.15-.1.24-.1.14,0,.27.06.37.15.3.26.5.61.57,1-.06-.02-.13-.02-.19,0-.33-.07-.64-.24-.89-.47-.18-.14-.22-.39-.1-.58M392.22,101.34h.12c.23-.02.43.14.47.37,0,.2-.21.36-.48.36-.41.02-.82-.1-1.14-.36.27-.25.63-.38,1-.37M390.84,99.17h0l.56,1-.56.68-.56-.68.56-1ZM389.39,102.08h0c-.14,0-.27-.05-.37-.14-.06-.06-.1-.14-.1-.23,0-.08.04-.16.1-.22.11-.1.25-.15.39-.14.41-.04.82.09,1.13.36-.33.26-.73.39-1.15.37M390.6,108.84c.51-.86.89-1.79,1.14-2.76.38,2.2.25,4.46-.38,6.6l-.52-.87-1.72,2.87c-.16-2.06.36-4.11,1.48-5.84M365.29,114.64c.1-.1.23-.15.37-.14.09,0,.17.03.23.1.05.06.08.15.07.23,0,.14-.07.27-.18.36-.27.26-.62.44-1,.49h-.06c.06-.4.28-.76.6-1M362.78,114.05h0l1.1.38v.88h0l-.87-.13-.23-1.13ZM363.29,117.33c-.09,0-.17-.03-.23-.1-.05-.06-.08-.15-.07-.23,0-.14.08-.28.19-.37.26-.28.62-.45,1-.49h.08c-.08.39-.29.74-.6,1-.1.09-.23.14-.37.14M355.4,134.28c-.23.36-.59.61-1,.72-.02-.12-.02-.23,0-.35.23-.35.53-.65.88-.88l.08-.06c.06.06.09.13.1.21,0,.13-.03.26-.11.36M348.67,150.28c.07-.2.13-.41.17-.62.06-.09.16-.15.27-.16.45-.06.87-.23,1.24-.5.36-.33.78-.58,1.24-.74.8-.3.8-1,1.54-2.34.44-1.25.58-2.59.41-3.9-.37.55-.85,1.02-1.4,1.38,0-.54-.06-1.08-.17-1.61-.05-.42-.05-.83,0-1.25-1.84.95-2,2.69-2.87,3.61h0c.21-1.98.55-3.94,1-5.87h0c.09-.3.71-.63,1.45-.83.42-.2.79-.5,1.08-.87h0c.01.34.29.61.63.6.06,0,.12,0,.18,0,.1-.02.2-.07.28-.13l-.17,1.05s-.15.45.72.64c-.21,2.21-1.47,18.37,3.94,27.81l-.37.62c-.61-.63-1.14-1.33-1.58-2.08.07.43,0,.86-.21,1.24-.27.56-.41,1.17-.41,1.79-.15-.44-.21-.91-.18-1.38.18-.7.24-1.44.18-2.16-.08-.82-.21-1.64-.39-2.45-.12,1.12-1,1.12-1.36,2.25-.2.6-.51,1.16-.92,1.65-.28.42-.45.91-.49,1.42-.47-1.34-.9-2.69-1.3-4,.16-.52.25-1.06.25-1.61.47-.43.92-.47,1.11-.74s.12-.71.32-1.12c.28-.46.52-.94.71-1.45.21-1.13.83-2.37.3-3.58l-.57.21c.03-.21.08-.42.15-.62.16-1.3.09-2.62-.21-3.9-.45.34-.86.71-1.24,1.12-.41.5-1.12.71-1.33,1.33s-.62.62-.92,1.24c-.26.52-.42,1.09-.46,1.68-.32-1.38-.53-2.78-.64-4.19v-1.53M395.1,192.91c-.92,0-1.83.24-2.65.67v-.08c1.08-1.84,2.28-3.6,3.6-5.27.61,1.61.25,3.42-.92,4.68M389.62,193.58c-.82-.43-1.73-.66-2.65-.67-1.17-1.26-1.53-3.07-.92-4.68,1.32,1.67,2.52,3.43,3.6,5.27v.08M421.32,180.58c.06-.09.1-.19.13-.3.24-.64.38-1.32.41-2-.11-.84-.32-1.66-.62-2.45-.29-.74-1-2.45-1.74-2.78,0,0-.59,1.95-.8,2.66-.13.7-.38,1.38-.74,2-.09.13-.26.42-.46.78-.05-.46-.05-.92,0-1.38.12-1.36-2-3.48-2-3.48.21.59-.62,2.95-1,3.48-.59.91-.98,1.93-1.13,3-.06.74-.35,1.44-.83,2-.61.84.08,4.35.16,4.75-1.38.85-2.81,1.68-4.15,2.35-.4.2-.85.4-1.34.61l.27-.25c.95-.85,1.64-1.95,2-3.17.64-.11-.86-.27-1.73-.2.51-.77,1.22-1.83,1.7-2.73.39-.74-3.31.24-3.31.24l-1,.38c.28-.85.47-1.72.59-2.6,0-.29-1.56.21-2.8.74-.92.55-1.8,1.17-2.61,1.87-1.09.7-1.24,2.48-1.74,3.31-.27.43-.49.9-.65,1.38,0-.55-.27-1.08-.73-1.38h-.06l-.2-.06c-.24-.05-.62-.11-1.23-.18-1.08-.22-2.18.24-2.78,1.16-.55,1.41-1,2.86-1.35,4.34-.32-.15-.68-.15-1,0-.35-1.48-.8-2.93-1.35-4.34-.6-.92-1.7-1.38-2.78-1.16-.61.07-1,.13-1.23.18l-.2.06h-.06c-.38.2-.75.7-.76,1.92-.12-.69-.39-1.34-.77-1.92-.5-.83-.65-2.61-1.75-3.31-.81-.7-1.68-1.33-2.6-1.87-1.24-.53-2.78-1-2.81-.74.13.88.33,1.75.6,2.6l-1-.38s-3.7-1-3.32-.24c.49.9,1.2,2,1.71,2.73-.88-.07-2.38.09-1.74.2.37,1.22,1.06,2.31,2,3.17l.28.25c-.49-.21-1-.41-1.35-.61-1.33-.67-2.76-1.5-4.14-2.35.08-.4.77-3.91.15-4.75-.48-.56-.77-1.26-.82-2-.16-1.07-.54-2.09-1.13-3-.41-.53-1.24-2.89-1-3.48,0,0-2.15,2.12-2,3.48.06.46.06.92,0,1.38-.19-.36-.36-.65-.45-.78-.36-.62-.61-1.29-.74-2-.21-.71-.8-2.66-.8-2.66-.74.33-1.45,2-1.75,2.78-.29.79-.5,1.61-.62,2.45-.12.51.33,1.48.42,2,.02.11.06.21.12.3-1.56-1.13-2.92-2.53-4-4.13.04-.39.19-.77.44-1.08.65-.7,1.17-1.5,1.54-2.37.1-.62.1-1.24,0-1.86.06-.61.16-1.23.29-1.83v-.12h1.73c3.07,2.26,14.11,9.22,27.09,3.55-.04.17-.12.33-.21.47,0,0-2.79,3.78,3.52,5.06h0c6.3-1.28,3.51-5.06,3.51-5.06-.09-.15-.15-.31-.2-.47,13,5.68,24-1.29,27.1-3.55h1.74v.12c.13.6.23,1.22.29,1.83-.11.62-.11,1.24,0,1.86.37.88.89,1.68,1.54,2.37.24.31.39.69.43,1.08-1.1,1.61-2.47,3-4.05,4.13"/>
  <path class="st0" d="M411.25,184.1c-.33-.01-.61.25-.62.58,0,0,0,0,0,.01-.01.34.25.62.59.63.01,0,.02,0,.03,0,.34,0,.62-.29.62-.63-.02-.33-.29-.59-.62-.59"/>
  <path class="st0" d="M414.74,188.39c-.34,0-.62.28-.62.62-.01.33.25.61.58.62.01,0,.03,0,.04,0,.34,0,.61-.28.62-.62-.01-.34-.28-.61-.62-.62"/>
  <path class="st0" d="M422.85,174.84c-.34,0-.62.29-.62.63.01.34.28.61.62.62.34,0,.61-.28.62-.62.01-.34-.25-.62-.59-.63-.01,0-.02,0-.03,0"/>
  <path class="st0" d="M427.2,177.92c0,.37.31.67.68.68.36.01.67-.28.68-.64,0-.01,0-.03,0-.04,0-.37-.31-.67-.68-.68-.37.02-.66.31-.68.68"/>
  <path class="st0" d="M428.79,163.4c.36.01.67-.28.68-.64,0-.01,0-.03,0-.04,0-.37-.31-.67-.68-.68-.37.02-.66.31-.68.68,0,.37.31.67.68.68"/>
  <path class="st0" d="M430.87,149.74c-.36-.01-.67.28-.68.64,0,.01,0,.03,0,.04,0,.38.3.68.68.68s.68-.3.68-.68c0-.37-.29-.67-.66-.68,0,0-.01,0-.02,0"/>
  <path class="st0" d="M434.64,138.64c.37.05.7-.22.75-.58.05-.37-.22-.7-.58-.75-.05,0-.11,0-.16,0-.38,0-.68.3-.68.68.02.36.32.65.68.65"/>
  <path class="st0" d="M429.83,139.89c.37,0,.67-.29.68-.66,0,0,0-.01,0-.02,0-.38-.3-.68-.68-.68s-.68.3-.68.68.3.68.68.68h0"/>
  <path class="st0" d="M425.78,128.83c-.01-.37-.31-.66-.68-.65-.37-.05-.7.22-.75.58-.05.37.22.7.58.75.05,0,.11,0,.16,0,.37,0,.67-.29.68-.66,0,0,0-.01,0-.02"/>
  <path class="st0" d="M428.7,126.64c.36.01.67-.28.68-.64,0-.01,0-.03,0-.04,0-.38-.3-.68-.68-.68s-.68.3-.68.68c0,.37.29.67.66.68,0,0,.01,0,.02,0"/>
  <path class="st0" d="M435.51,150.54c.01.37.31.66.68.65.36,0,.65-.29.65-.65s-.29-.65-.65-.65c-.36-.01-.67.28-.68.64,0,0,0,0,0,.01"/>
  <path class="st0" d="M370.72,184.1c-.33,0-.6.26-.62.59,0,.34.28.62.62.63.34,0,.61-.26.62-.6,0-.01,0-.02,0-.03,0-.33-.28-.6-.61-.59,0,0,0,0-.01,0"/>
  <path class="st0" d="M367.85,189.01c0-.34-.28-.62-.62-.62-.34.01-.61.28-.62.62,0,.34.28.62.62.62.34,0,.61-.26.62-.6,0,0,0-.01,0-.02"/>
  <path class="st0" d="M359.12,174.84c-.34,0-.61.26-.62.6,0,.01,0,.02,0,.03,0,.34.28.61.62.62.34-.01.61-.28.62-.62,0-.34-.28-.62-.62-.63"/>
  <path class="st0" d="M354.09,178.64c.37,0,.67-.31.68-.68-.02-.37-.31-.66-.68-.68-.37,0-.67.31-.68.68-.01.36.28.67.64.68.01,0,.03,0,.04,0"/>
  <path class="st0" d="M353.17,162.04c-.37,0-.67.31-.68.68,0,.37.29.67.66.68,0,0,.01,0,.02,0,.38,0,.68-.3.68-.68-.02-.37-.31-.66-.68-.68"/>
  <path class="st0" d="M349.64,163.96c0-.37-.29-.67-.66-.68,0,0-.01,0-.02,0-.38,0-.68.3-.68.68s.3.68.68.68c.37,0,.67-.29.68-.66,0,0,0-.01,0-.02"/>
  <path class="st0" d="M351.1,151.1c.37,0,.67-.31.68-.68,0-.38-.3-.68-.68-.68s-.68.3-.68.68c0,.37.31.67.68.68"/>
  <path class="st0" d="M347.32,138.64c.37.05.7-.22.75-.58.05-.37-.22-.7-.58-.75-.05,0-.11,0-.16,0-.37-.05-.7.22-.75.58-.05.37.22.7.58.75.05,0,.11,0,.16,0"/>
  <path class="st0" d="M352.14,138.53c-.38,0-.68.3-.68.68,0,.38.3.68.68.68s.68-.3.68-.68c0-.37-.31-.67-.68-.68"/>
  <path class="st0" d="M356.19,128.83c-.01.36.28.67.64.68.01,0,.03,0,.04,0,.37.05.7-.22.75-.58.05-.37-.22-.7-.58-.75-.05,0-.11,0-.16,0-.36-.01-.67.28-.68.64,0,0,0,0,0,.01"/>
  <path class="st0" d="M353.26,126.64c.36.01.67-.28.68-.64,0-.01,0-.03,0-.04,0-.38-.3-.68-.68-.68s-.68.3-.68.68c0,.37.29.67.66.68,0,0,.01,0,.02,0"/>
  <path class="st0" d="M346.46,150.54c.01-.37-.28-.68-.65-.69-.37-.01-.68.28-.69.65-.01.37.28.68.65.69,0,0,0,0,0,0,.36.01.67-.28.68-.64,0,0,0,0,0-.01"/>
  <path class="st0" d="M382.98,141.02c.3-.06.39,0,.5.29l.18-.06-.18-.41,1.19-.5-.12-.24-1.66.74.09.18Z"/>
  <path class="st0" d="M382.64,138.88h-.23l.2.92,1-.09v-.18c-.13-.04-.24-.15-.27-.29-.05-.21.08-.42.29-.47,0,0,0,0,0,0,.19-.08.41.01.48.2,0,.02.01.04.02.06.07.17,0,.36-.17.44-.01,0-.02,0-.03.01l.05.23c.28-.08.45-.37.37-.65,0,0,0-.02,0-.03-.04-.33-.34-.56-.67-.52-.03,0-.07.01-.1.02-.31.06-.51.36-.45.67,0,.01,0,.03,0,.04.03.13.1.24.2.32h-.5l-.2-.68Z"/>
  <path class="st0" d="M382.64,137.41c.33,0,.42-.24.48-.36l.12-.38c.08-.3.14-.39.35-.36s.3.33.27.5-.15.51-.48.48v.23c.18.03.37-.02.51-.14.13-.15.2-.34.2-.54,0-.32-.06-.74-.5-.77-.24-.04-.46.12-.5.36l-.18.53c-.03.13-.14.21-.27.21-.26,0-.29-.3-.26-.47-.02-.21.14-.4.36-.42.02,0,.03,0,.05,0v-.23c-.2,0-.59,0-.65.68-.06.32.15.62.47.67.02,0,.04,0,.06,0"/>
  <polygon class="st0" points="384.61 134.57 384.4 134.51 384.05 135.57 383.45 135.37 383.78 134.42 383.57 134.33 383.25 135.3 382.72 135.13 383.07 134.09 382.83 134.01 382.42 135.3 384.2 135.87 384.61 134.57"/>
  <path class="st0" d="M384.87,134.16l-.68-.42.29-.49c.18-.24.12-.58-.12-.75-.02-.01-.04-.02-.05-.04-.11-.07-.25-.1-.38-.06-.15.04-.28.14-.36.27l-.41.71,1.56,1,.15-.22ZM383.48,133.27l.28-.43c.05-.11.16-.17.28-.17.04.02.08.04.12.07.13.06.19.22.13.36-.01.03-.03.06-.06.08l-.24.39-.51-.3Z"/>
  <polygon class="st0" points="384.76 131.55 385.94 132.67 386.09 132.5 384.93 131.37 385.38 130.9 385.2 130.75 384.16 131.85 384.31 131.99 384.76 131.55"/>
  <polygon class="st0" points="386.92 131.82 385.79 130.34 385.61 130.49 386.71 131.96 386.92 131.82"/>
  <polygon class="st0" points="388.42 130.93 388.34 130.75 387.33 131.26 387.06 130.72 387.95 130.25 387.86 130.04 386.94 130.52 386.68 130.01 387.65 129.51 387.57 129.3 386.35 129.92 387.21 131.58 388.42 130.93"/>
  <path class="st0" d="M388.87,130.81l-.24-1.09c-.06-.14-.1-.3-.11-.45l.85,1.42.27-.05.18-1.63c.05.14.08.29.09.44l.23,1.07h.24l-.39-1.84-.35.09-.18,1.66-.86-1.42-.35.06.41,1.8.21-.06Z"/>
  <path class="st0" d="M391.43,130.5c.42,0,.66-.19.66-.49.02-.21-.11-.41-.32-.47.16-.06.27-.21.26-.38,0-.27-.14-.48-.49-.51h-.81l-.09,1.85h.79ZM391.01,128.88h.4c.27,0,.36.08.36.26s-.14.27-.38.24h-.43l.05-.5ZM391.41,129.69c.18,0,.38.06.38.3s-.14.3-.38.3h-.47v-.6h.47Z"/>
  <path class="st0" d="M392.73,129.9l.6.18c.3.08.26.25.24.4-.06.14-.1.3-.09.45l.3.08h0c-.06-.06,0-.09,0-.21v-.32c.09-.24,0-.32-.09-.38.12-.06.3-.1.37-.37s-.16-.55-.45-.63l-.83-.28-.49,1.81.23.06.21-.79ZM393.03,129.12l.54.19c.11,0,.3.08.21.34s-.23.22-.41.19l-.51-.15.17-.57Z"/>
  <polygon class="st0" points="395.14 131.82 395.23 131.64 394.28 131.08 394.58 130.55 395.47 131.05 395.58 130.87 394.7 130.34 394.99 129.87 395.94 130.43 396.06 130.22 394.88 129.54 393.96 131.14 395.14 131.82"/>
  <path class="st0" d="M396.29,132.99c.32.34.86.36,1.2.04.01-.01.03-.03.04-.04.37-.23.49-.73.25-1.1-.02-.03-.04-.06-.06-.09l-.49-.56-1.41,1.18.47.57ZM397.48,131.99c.21.24.18.49-.15.79s-.62.26-.83,0l-.27-.32,1-.83.25.36Z"/>
  <polygon class="st0" points="397.54 135.01 397.74 134.92 397.24 133.92 397.8 133.65 398.25 134.57 398.45 134.45 397.98 133.56 398.51 133.3 398.99 134.27 399.19 134.18 398.57 132.97 396.92 133.8 397.54 135.01"/>
  <path class="st0" d="M399.1,136.2l-1.27.17v.24l1.8-.27v-.18c-.29,0-.32-.11-.41-.41h-.17l.05.45Z"/>
  <path class="st0" d="M399.25,137.27c-.17-.01-.32.1-.36.26-.05-.21-.24-.35-.45-.36-.16-.01-.32.05-.43.17-.09.13-.14.29-.14.45-.04.29.15.56.44.6.03,0,.06,0,.09,0,.2.04.39-.07.47-.25.05.15.2.25.36.23.24,0,.49-.12.49-.53.05-.27-.13-.52-.39-.57-.03,0-.05,0-.08,0M398.4,138.15c-.27,0-.3-.22-.3-.36-.01-.17.11-.31.28-.32.02,0,.04,0,.06,0,.16,0,.29.13.29.29,0,.02,0,.05,0,.07.02.15-.08.3-.23.32-.03,0-.06,0-.09,0M399.25,138.15c-.16-.03-.28-.17-.28-.34,0-.15.13-.27.28-.26,0,0,0,0,0,0,.12,0,.27.06.24.3s-.15.3-.24.3"/>
  <path class="st0" d="M398.99,138.8v.23c.12,0,.42.12.33.45s-.26.32-.38.26-.3-.2-.36-.41l-.06-.27c-.09-.29-.32-.52-.62-.59l-.3,1.21.21.06.24-1c.09,0,.2.12.26.38l.07.21c.08.32.17.56.47.62.3.08.6-.11.68-.41,0,0,0,0,0,0,.1-.32-.08-.65-.4-.75-.03,0-.07-.02-.1-.02"/>
  <path class="st0" d="M398.64,140.51l-.17.39-1.16-.57-.12.24,1.66.77.06-.18c-.24-.18-.21-.3-.09-.59l-.18-.06Z"/>
  <path class="st0" d="M388.72,147.04h.2l1.36-5.61h-.2l-1.34,5.54-.02.07Z"/>
  <path class="st0" d="M388.53,144.64l.19.07,1.14-3.32-.2-.06-1.12,3.31h0Z"/>
  <path class="st0" d="M386.64,146.69l.18.08,2.63-5.52-.19-.08-2.62,5.47v.05Z"/>
  <path class="st0" d="M386.18,145.77l2.85-4.7-.18-.1-2.84,4.67.17.13Z"/>
  <path class="st0" d="M384.42,145.84v.05l.16.12,4.06-5.17-.15-.13-4.07,5.13Z"/>
  <path class="st0" d="M384.69,144.57l3.58-4h0l-.15-.13-3.59,4,.16.13Z"/>
  <path class="st0" d="M387.96,140.29l-.12-.15-5.31,4.68.13.15,5.29-4.66v-.02Z"/>
  <path class="st0" d="M387.64,139.94h0c0-.06-.09-.1-.13-.16l-2.8,2h0l.11.16,2.82-2Z"/>
  <path class="st0" d="M387.42,139.58l-.09-.17-2,1.09.1.18,1.99-1.1Z"/>
  <path class="st0" d="M385.08,139.95l.08.18,2.07-.9-.1-.18-2.05.9Z"/>
  <polygon class="st0" points="384.84 139.33 384.9 139.52 387.01 138.84 387.05 138.82 386.99 138.63 384.84 139.33"/>
  <path class="st0" d="M386.93,138.41c0-.06,0-.13,0-.19l-2.2.48v.2l2.2-.49Z"/>
  <path class="st0" d="M384.56,138.04v.2l2.27-.25v-.2l-2.27.25Z"/>
  <path class="st0" d="M384.53,137.57h2.28v-.2h-2.28v.2Z"/>
  <path class="st0" d="M384.57,136.95l2.23.19h0v-.2l-2.22-.2h-.05l.04.21Z"/>
  <path class="st0" d="M384.64,136.23l2.25.49c0-.07,0-.13,0-.2l-2.25-.49v.2Z"/>
  <path class="st0" d="M384.81,135.64l2.13.7h0l.06-.19-2.15-.71-.04.2Z"/>
  <path class="st0" d="M385.08,134.83l-.08.18,2.11.9c0-.07.06-.12.08-.19l-2.06-.88h-.05Z"/>
  <path class="st0" d="M385.29,134.41l2,1.09h0c.03-.06.06-.12.1-.18l-2-1.1-.1.19Z"/>
  <path class="st0" d="M385.64,133.86l1.83,1.3c0-.06.09-.1.13-.16l-1.84-1.31-.12.17Z"/>
  <path class="st0" d="M386.24,133.17l-.13.16,1.68,1.45h0l.13-.15-1.65-1.43-.03-.03Z"/>
  <path class="st0" d="M386.72,132.72l-.15.14,1.54,1.61s.1-.09.15-.13l-1.51-1.59-.03-.03Z"/>
  <path class="st0" d="M387.23,132.31l-.16.12,1.39,1.74s.1-.09.16-.12l-1.36-1.71-.03-.03Z"/>
  <path class="st0" d="M387.87,131.94l-.18.1,1.1,1.89h0l.18-.1-1.09-1.87v-.02Z"/>
  <path class="st0" d="M388.44,131.64l-.18.09.91,2,.19-.08-.9-1.93-.02-.08Z"/>
  <path class="st0" d="M389.09,131.45l-.2.07.73,2.06c.06-.03.12-.05.19-.06l-.71-2v-.07Z"/>
  <path class="st0" d="M389.75,131.25h-.19l.44,2.16h.19l-.44-2.12v-.04Z"/>
  <path class="st0" d="M390.47,133.39h.2l-.22-2.2h-.2l.22,2.2Z"/>
  <path class="st0" d="M391.05,131.15h-.21v2.2h.17v-2.17l.04-.03Z"/>
  <path class="st0" d="M391.28,133.36h.2l.22-2.23h-.21l-.21,2.23Z"/>
  <path class="st0" d="M391.87,133.48h0l.44-2.19h-.2l-.43,2.18.15.05"/>
  <path class="st0" d="M392.99,131.51l-.19-.06-.7,2.05h0l.19.05.69-2v-.04Z"/>
  <path class="st0" d="M393.64,131.76l-.18-.08-.89,2h0c.06.03.12.06.18.09l.88-2h0Z"/>
  <polygon class="st0" points="393.97 131.93 392.91 133.81 392.89 133.86 393.06 133.96 394.14 132.03 393.97 131.93"/>
  <path class="st0" d="M393.23,134.05h0l.16.13,1.34-1.74h0l-.16-.12-1.34,1.73Z"/>
  <polygon class="st0" points="393.57 134.34 393.72 134.48 395.19 132.88 395.23 132.84 395.07 132.71 393.57 134.34"/>
  <polygon class="st0" points="393.88 134.64 394.01 134.79 395.66 133.31 395.53 133.16 393.88 134.64"/>
  <path class="st0" d="M394.2,134.98h0c0,.06.09.1.13.16l1.74-1.29h0l-.12-.16-1.75,1.29Z"/>
  <path class="st0" d="M394.43,135.3h0l.09.18,1.93-1.08h0l-.1-.17-1.92,1.07Z"/>
  <path class="st0" d="M394.64,135.7h0l.09.18,2-.88h.05l-.09-.18-2.05.88Z"/>
  <path class="st0" d="M394.76,136.13l.06.19,2-.7h.05l-.07-.19-2.04.7Z"/>
  <path class="st0" d="M394.87,136.5c.02.06.04.13.05.19l2.17-.49v-.19l-2.22.49Z"/>
  <path class="st0" d="M394.94,136.91c0,.07,0,.14,0,.21l2.14-.2h0v-.2l-2.14.19Z"/>
  <path class="st0" d="M395,137.45v.06h2.19v-.2h-2.21v.14"/>
  <path class="st0" d="M394.92,138.18v.2l2.12.48v-.2l-2.12-.48Z"/>
  <path class="st0" d="M397.13,138.2v-.2l-2.19-.24h0v.16l2.14.23.05.05Z"/>
  <path class="st0" d="M396.82,139.48l.07-.2-2-.67h-.05l-.06.18,2,.67.04.02Z"/>
  <path class="st0" d="M394.64,139.01c-.03.07-.06.13-.09.19l1.94.87h.05l.08-.18-1.98-.88Z"/>
  <path class="st0" d="M394.4,139.54l1.84,1.1h0l.1-.18-1.88-1.08c0,.06-.06.12-.1.17"/>
  <path class="st0" d="M394.16,139.9l2.74,2,.12-.16-2.73-2c-.04.06-.08.11-.13.16"/>
  <path class="st0" d="M394,140.09c-.04.06-.08.11-.13.16l5.07,4.62h0l.14-.15-5.08-4.64h0Z"/>
  <path class="st0" d="M393.57,140.53l3.45,4,.16-.13-3.45-4h0l-.12.09h0"/>
  <path class="st0" d="M393.26,140.79l3.9,5.15.16-.12-3.91-5.18-.15.13"/>
  <path class="st0" d="M392.85,141.02l2.72,4.63v.05l.18-.11-2.74-4.66-.18.09"/>
  <path class="st0" d="M392.5,141.22l2.5,5.44h0l.18-.08-2.52-5.5-.18.1"/>
  <path class="st0" d="M392.06,141.35l1.07,3.25h0l.19-.07-1.09-3.28-.19.05"/>
  <path class="st0" d="M391.64,141.47l1.3,5.55h.2l-1.3-5.55-.2.05"/>
  <path class="st0" d="M372.14,178.34s-.63.73-.28,1.35c.34.43.97.51,1.4.17.06-.05.12-.1.17-.17,0,0-1.52,0-1.29-1.35"/>
  <path class="st0" d="M408.52,179.69c.34.43.97.51,1.4.17.06-.05.12-.1.17-.17.35-.62-.28-1.35-.28-1.35.23,1.37-1.29,1.35-1.29,1.35"/>
  <path class="st0" d="M377.85,177.57l-.33-.2-.82,1.37.33.2c.39.2.88.05,1.08-.35.18-.36.07-.8-.26-1.02"/>
  <path class="st0" d="M380.51,178.96c-.4-.21-.9-.06-1.11.34-.21.4-.06.9.34,1.11.4.21.9.06,1.11-.34,0-.02.02-.03.02-.05.19-.39.03-.86-.36-1.06,0,0,0,0,0,0"/>
  <path class="st0" d="M389.74,181.35c-.42-.03-.79.29-.82.72,0,.01,0,.03,0,.04-.07.43.23.82.65.89.43.07.82-.23.89-.65,0-.05.01-.1,0-.16.04-.42-.27-.8-.7-.84-.01,0-.02,0-.03,0"/>
  <path class="st0" d="M397.24,181.45l-.45.12.18.7.46-.12c.18-.03.31-.21.27-.4,0-.01,0-.03-.01-.04-.04-.19-.23-.31-.42-.27-.01,0-.02,0-.03,0"/>
  <path class="st0" d="M397.37,180.84c-.03-.16-.18-.26-.34-.24-.02,0-.04,0-.05.02l-.41.11.15.61.43-.11c.16-.04.26-.2.23-.36,0-.01,0-.02,0-.03"/>
  <path class="st0" d="M400.28,179.56c-.1,0-.2.03-.29.07l-.31.13.28.69.39-.15c.18-.06.28-.26.23-.44,0-.02-.02-.04-.03-.06-.04-.13-.14-.22-.27-.24"/>
  <path class="st0" d="M403.01,178.57l.12.7.56-.31-.53-.47-.21-.23h0s0,.2.07.31"/>
  <path class="st0" d="M409.02,178.72l-.67-.25c.46-.19.97-.23,1.46-.13l-.82-.73c-1.66-1.5-4.08-1.81-6.06-.78-7.32,4.56-16.6,4.56-23.92,0-1.98-1.03-4.4-.72-6.06.78l-.81.73c.49-.1,1-.06,1.46.13l-.67.25c.85.34.5,1,.5,1l1-.92c1.57.65,3.09,1.41,4.55,2.27,7.46,4.04,16.46,4.04,23.92,0,1.46-.86,2.98-1.62,4.55-2.27l1,.92s-.35-.63.5-1M376.85,179.17l-.6-.35,1.07-1.82.6.36c.49.25.69.85.45,1.34-.02.03-.04.07-.06.1-.25.49-.85.69-1.34.44-.04-.02-.08-.04-.12-.07M378.35,180.01l-.27-.14,1-1.85.26.14-.99,1.85ZM379.62,180.69c-.54-.26-.77-.91-.51-1.45,0,0,0,0,0,0,.25-.55.91-.79,1.46-.54.55.25.79.91.54,1.46-.24.55-.88.79-1.42.55,0,0-.02,0-.03-.01M382.6,180.06c-.08-.15-.2-.27-.36-.34-.16-.09-.37-.03-.46.13,0,0,0,.01,0,.02-.16.41.83.67.59,1.3-.12.31-.47.46-.78.34-.02,0-.04-.02-.06-.03-.24-.09-.44-.28-.55-.51l.23-.14c.09.18.24.32.42.4.16.08.35.03.43-.13,0-.01.01-.02.02-.03.17-.42-.82-.7-.58-1.3.14-.31.51-.45.82-.32.01,0,.02,0,.03.02.21.07.38.22.48.41l-.22.18ZM384.35,182.42c-.42-.07-.7-.47-.63-.89,0-.04.02-.07.03-.11l.35-1.31.29.07-.35,1.32c-.09.25.05.52.3.61.03,0,.05.02.08.02.25.09.54-.04.63-.29,0-.02.02-.05.02-.07l.35-1.31.29.08-.35,1.31c-.11.42-.53.67-.95.57-.02,0-.04,0-.05-.02M387.36,182.99l-.28-.05-.69-1.52c-.05-.11-.09-.22-.12-.33h0v.3l-.24,1.36-.29-.06.37-2.08h.29l.68,1.52c.05.11.09.22.12.33h0v-.31l.25-1.35h.29l-.38,2.19ZM388.16,183.08h-.3l.25-2.09h.3l-.25,2.09ZM389.62,183.23c-.59-.04-1.04-.56-1-1.15,0,0,0,0,0,0,.04-.59.55-1.04,1.14-1,0,0,0,0,0,0,.55,0,1,.44,1.01.99,0,.04,0,.09,0,.13-.01.59-.5,1.06-1.09,1.05-.01,0-.03,0-.04,0M392.52,183.24l-1-1.33c-.08-.11-.19-.29-.19-.29h0c0,.1,0,.2,0,.3l.06,1.37h-.3l-.08-2.1h.29l1,1.33c.08.11.19.3.19.3h0c0-.1,0-.2,0-.3l-.06-1.37h.3l.08,2.1h-.29ZM394.52,183.04l-.33-2.08h.29l.29,1.83.93-.15v.25l-1.18.15ZM395.99,182.79l-.43-2.07.29-.06.43,2.07-.29.06ZM397.51,182.43l-.73.19-.54-2,.72-.19c.28-.11.59.02.71.29,0,.02.02.05.02.07.05.18,0,.38-.14.51h0c.23.02.42.19.46.41.09.31-.09.64-.4.73-.03,0-.06.02-.1.02M398.57,182.17l-.67-2,1.17-.39.08.25-.88.29.2.63.72-.24.08.25-.71.23.21.65.93-.31.08.24-1.21.4ZM401.23,181.17l-.73-.62-.42.17.32.78-.28.11-.78-1.95.6-.24c.12-.06.25-.1.38-.11.25,0,.46.17.54.4.11.23.05.5-.14.67h0l.1.07.71.59-.3.13ZM402.23,180.7l-.79-1.68-.65.31-.11-.23,1.58-.75.11.24-.66.31.79,1.67-.27.13ZM404.35,179.6l-.48-.43-.7.38.11.64-.27.14-.34-2.22.28-.15,1.67,1.5-.27.14ZM405.43,178.96l-.6.37-1.11-1.79.59-.37c.47-.35,1.13-.26,1.49.2.35.47.26,1.13-.2,1.49-.05.04-.1.07-.16.1"/>
  <path class="st0" d="M404.43,177.37l-.33.2.85,1.36.32-.2c.37-.25.46-.75.21-1.11-.23-.34-.69-.45-1.05-.25"/>
</svg>