<?xml version="1.0" encoding="UTF-8"?>
<svg id="Capa_1" xmlns="http://www.w3.org/2000/svg" version="1.1" viewBox="0 0 595.28 841.89">
  <!-- Generator: Adobe Illustrator 29.6.0, SVG Export Plug-In . SVG Version: 2.1.1 Build 207)  -->
  <defs>
    <style>
      .st0 {
        fill: #242f61;
      }
    </style>
  </defs>
  <polygon class="st0" points="402.79 42.4 411.93 63.5 432.38 66.9 417.6 83.32 421.07 106.54 402.79 95.56 384.5 106.54 387.97 83.32 373.19 66.9 393.64 63.5 402.79 42.4"/>
  <polygon class="st0" points="537.24 81.53 546.38 102.62 566.83 106.03 552.01 122.44 555.52 145.66 537.24 134.69 518.95 145.66 522.42 122.44 507.64 106.03 528.09 102.62 537.24 81.53"/>
  <polygon class="st0" points="537.87 702.73 547.01 723.83 567.46 727.19 552.68 743.65 556.15 766.82 537.87 755.89 519.59 766.82 523.06 743.65 508.28 727.19 528.73 723.83 537.87 702.73"/>
  <polygon class="st0" points="402.71 736.12 411.85 757.26 432.34 760.62 417.53 777.07 421.03 800.25 402.71 789.28 384.43 800.25 387.93 777.07 373.12 760.62 393.57 757.26 402.71 736.12"/>
  <polygon class="st0" points="270.57 702.82 279.72 723.91 300.17 727.32 285.39 743.73 288.86 766.95 270.57 755.98 252.29 766.95 255.76 743.73 240.98 727.32 261.43 723.91 270.57 702.82"/>
  <polygon class="st0" points="167.96 607.73 177.1 628.82 197.55 632.22 182.77 648.64 186.24 671.86 167.96 660.89 149.67 671.86 153.14 648.64 138.36 632.22 158.81 628.82 167.96 607.73"/>
  <polygon class="st0" points="106.87 471.77 116.01 492.9 136.46 496.26 121.65 512.72 125.15 535.9 106.87 524.97 88.55 535.9 92.05 512.72 77.24 496.26 97.69 492.9 106.87 471.77"/>
  <polygon class="st0" points="106.87 312.75 116.01 333.85 136.46 337.25 121.65 353.67 125.15 376.89 106.87 365.91 88.55 376.89 92.05 353.67 77.24 337.25 97.69 333.85 106.87 312.75"/>
  <polygon class="st0" points="164.86 176.79 174 197.89 194.45 201.29 179.67 217.7 183.14 240.92 164.86 229.95 146.57 240.92 150.04 217.7 135.27 201.29 155.72 197.89 164.86 176.79"/>
  <polygon class="st0" points="270.39 81.61 279.53 102.71 300.02 106.11 285.2 122.53 288.71 145.75 270.39 134.77 252.1 145.75 255.61 122.53 240.8 106.11 261.25 102.71 270.39 81.61"/>
  <path class="st0" d="M559.55,476.15h-.3c-1.42,0-2.54,1.28-2.54,2.89s1.12,2.89,2.54,2.89h.6c1.42,0,2.54-1.28,2.54-2.89s-1.12-2.89-2.54-2.89h-.3"/>
  <path class="st0" d="M587.65,435.57c-2.2.43-4.29,1.32-6.19,2.64-1.12.85-2.39,1.4-3.73,1.66.75-1.7,1.04-3.61.9-5.53-.45-5.32-.45-13.99-.45-13.99,0,0-1.53,5.27-3.73,6.55s-6.53,3.02-7.28,4.81-3.73,1.74-5.11,7.02c-.26,2.3-.9,4.51-1.87,6.55-.3.6-.63,1.19-.97,1.79,1.49-7.61,2.35-15.4,2.54-23.18v-3.61c.93-.89,1.83-1.87,2.65-2.89.97-1.83,12.84-6.46,14.48-10.12s2.54-6.04,3.32-7.53c1.16-3.1,1.79-6.46,1.87-9.82-.11-4.51-.56-9.02-1.34-13.44-1.83,1.06-3.47,2.51-4.85,4.25-.34.6-.78,1.11-1.31,1.53,0-1.28-.19-2.55-.56-3.74-1.64-4.68-4.18-10.84-4.18-10.84,0,0-2.2,3.91-3.43,6.29-1.98,4.55-3.99,4.89-4.33,6.68s-2.65,3.02-3.51,6.68c-.26.94-.45,1.91-.6,2.89-.9-7.78-2.02-14.84-3.32-21.26.6-2.04,1.23-6.51,2.84-8,2.02-2.3,3.02-5.57,2.65-8.8-.07-2.81-.45-5.61-1.12-8.29-.34-2.13-6.19-11.31-5.75-13.95,0,0-2.87,7.44-3.96,10.33-2.91-3.32-6.19-6.17-9.74-8.51-1.42-2.89-2.91-5.78-4.44-8.51,0-.85.22-2.64.49-4.55.71-2.98.86-6.12.41-9.19-.75-2.13-2.31-3.91-3.06-6.55-.45-2.47-1.53-4.76-3.1-6.55-1.9-2.25-4.63-5.27-4.63-5.27,0,0-.78,3.87-1.49,7.02-.63-.34-1.27-.64-1.94-.85-.45,0-1.42-.77-2.5-1.45-1.34-2.04-2.61-4-3.73-5.74.71-.51,1.16-1.4,1.16-2.38,0-1.62-1.12-2.89-2.54-2.89s-2.54,1.28-2.54,2.89h0c-.04,1.53,1.04,2.85,2.39,2.89h.15c.49,0,.97-.17,1.38-.47l2.84,5.1c-1.23-.81-2.46-1.57-3.02-2s-1.53,7.91.78,12.76l-1.08-.34c-2.87-.81-5.86-1.11-8.84-.85,1.08,0,3.73,3.4,4.18,5.15.97,2.64,2.61,4.93,4.66,6.55,2.09,1.32,3.99,2.98,5.71,4.89,3.02,1.74,6.38,2.47,9.74,2.13,1.01.72,2.2,1.06,3.4.98l4.22,8.51c-.56,2.47-.86,4.98-.9,7.53h0c-1.87-.34-8.4-2.13-8.4-2.13.37,3.91,1.53,7.66,3.36,10.97-.37.38-.63.94-.75,1.49-.11.94.07,1.87.56,2.64.93,1.53,2.2,2.76,3.73,3.44l-31.57,25.3c1.49-30.96.49-62.01-3.1-92.75,3.73-1.62,2.8-3.61,2.8-3.61l-1.49-4.25c.37.21.82.34,1.23.34.67,0,1.34-.3,1.79-.85.86-1.32.67-3.19-.41-4.25-.67-.85-1.53-1.53-2.43-2l4.48-.77,2.57-12.38h0l-10.56,4.25-.26,5.19c-.49-.98-1.12-1.87-1.9-2.55-.82-1.36-2.43-1.7-3.62-.77s-1.49,2.76-.67,4.13c.22.38.52.68.86.89,1.04,1.11,2.35,1.91,3.73,2.34v.3l-52.58,66-35.15-66.9c2.16-16.25-5.45-40.87-5.78-41.85.49-2.17.67-4.42.63-6.68,1.6-.55,2.84-1.96,3.32-3.78h0c-1.27-1.83-2.65-3.53-4.07-5.19.63.17,1.27.26,1.9.3h.26c1.42.3,2.76-.81,3.02-2.42.26-1.62-.71-3.15-2.13-3.44-.3-.04-.6-.04-.9,0h0c-1.01-.04-2.02.09-2.99.43l2.91-4.25-5.45-11.1h0l-5.41,11.14,2.91,4c-.93-.34-1.94-.47-2.91-.43-.82,0-1.64.38-2.24,1.02-.45.51-.71,1.19-.71,1.91s.26,1.4.71,1.91c.6.68,1.38,1.02,2.2,1.02h.26c.52.04,1.01.04,1.53,0-1.01,1.11-1.94,2.25-2.84,3.49-.3.3-.56.64-.75,1.02v.94c.37.89.93,1.66,1.64,2.21-4.03,8.51-13.96,33.26-8.21,58.99l-30.38,57.67-53.1-66.73c1.57-.3,3.06-1.11,4.22-2.38.63-.6,1.01-1.53,1.04-2.47.07-.72-.15-1.45-.6-1.96-.41-.51-1.01-.85-1.64-.85-.82,0-1.6.3-2.2.89-.78.72-1.46,1.62-1.98,2.59l-.22-5.19-10.6-4.25h0l2.61,12.38,4.48.77c-.9.47-1.72,1.11-2.39,1.96-.63.6-1.01,1.53-1.04,2.47-.07.72.15,1.45.6,1.96s1.01.81,1.64.85h0c.41,0,.82-.13,1.23-.3l-1.49,4.25s-1.04,2,2.8,3.61c-3.58,30.75-4.59,61.79-3.1,92.75l-31.53-25.09c1.53-.68,2.84-1.87,3.73-3.44.45-.68.63-1.49.6-2.34-.04-.64-.3-1.28-.71-1.74,1.87-3.32,2.99-7.1,3.36-11.01,0,0-6.49,1.79-8.4,2.13h0c0-2.55-.34-5.06-.9-7.53l4.22-8.51c1.19.09,2.39-.26,3.4-.98,3.36.38,6.72-.38,9.7-2.13,1.72-1.91,3.66-3.53,5.75-4.89,2.05-1.62,3.66-3.91,4.63-6.55.34-1.74,3.1-5.15,4.22-5.15-2.99-.26-5.97,0-8.84.85l-1.08.34c2.31-4.76,1.75-13.4.75-12.76s-1.75,1.19-2.99,2l2.84-5.1c1.19.85,2.76.47,3.51-.85s.41-3.15-.75-4c-1.19-.85-2.76-.47-3.51.85-.26.47-.41,1.02-.41,1.57,0,.98.41,1.87,1.16,2.38-1.23,1.74-2.5,3.7-3.73,5.74-1.08.68-2.05,1.23-2.5,1.45-.67.21-1.34.51-1.98.85-.71-3.15-1.46-7.02-1.46-7.02,0,0-2.76,3.02-4.63,5.27-1.57,1.79-2.65,4.08-3.1,6.55-.78,2.64-2.31,4.25-3.1,6.55-.45,3.06-.3,6.21.45,9.19.26,1.91.41,3.7.49,4.55-1.53,2.85-3.02,5.66-4.48,8.51-3.55,2.34-6.79,5.19-9.7,8.51-1.08-2.89-3.96-10.33-3.96-10.33.41,2.64-5.41,11.82-5.75,13.95-.67,2.68-1.04,5.49-1.12,8.29-.37,3.23.6,6.51,2.65,8.8,1.6,1.49,2.24,5.95,2.8,8-1.27,6.38-2.39,13.44-3.28,21.26,0-.68-.3-1.62-.6-2.89-.9-3.66-3.32-4.81-3.73-6.68s-2.31-2.13-4.29-6.68c-1.23-2.38-3.43-6.29-3.43-6.29,0,0-2.54,6.17-4.18,10.84-.41,1.19-.6,2.47-.56,3.74-.52-.43-.97-.94-1.34-1.53-1.34-1.79-3.02-3.23-4.85-4.25-.75,4.42-1.19,8.93-1.31,13.44.04,3.4.67,6.72,1.87,9.82.78,1.49,1.64,4.04,3.32,7.53s13.47,8.29,14.48,10.12c.82,1.02,1.72,2,2.65,2.89v3.61c.19,7.78,1.01,15.57,2.5,23.18-.34-.55-.63-1.19-.93-1.79-.97-2.04-1.6-4.25-1.9-6.55-1.19-5.27-4.29-5.27-5.07-7.02s-4.96-3.57-7.46-4.81-3.73-6.55-3.73-6.55c0,0,0,8.51-.41,13.99-.15,1.91.15,3.83.9,5.53-1.34-.26-2.61-.81-3.73-1.66-1.87-1.32-3.96-2.21-6.16-2.64.52,4.72,1.27,9.36,2.31,13.95.97,3.4,2.54,6.51,4.63,9.19,1.08,1.36,2.65,3.53,5.3,6.55,2.65,3.02,9.66,3.74,17.35,6.63,2.2.81,4.1,2.42,5.37,4.64.3,1.11.52,2.08.67,2.81.86,3.83,1.98,8.51,3.32,13.48-2.69-3.06-6.34-4.76-10.15-4.81-2.65-.51-13.02-3.53-13.02-3.53,2.46,2.08,3.99,7.87,5.52,13.1-3.99-.81-8.06-.81-12.05,0,1.12.85,9.18,8.8,10.26,13.18,1.57,4.72,3.77,9.14,6.53,13.1,1.23.89,4.63,5.66,6.98,8.51s11.46,1.28,14.55,1.28c2.43.51,4.78,1.36,7.02,2.55,2.91,4.17,6.19,8.08,9.74,11.57-3.17-1.45-6.05-3.61-8.47-6.34-1.49-2.3.22,7.74,1.94,11.01-2.35-.04-4.66-.81-6.68-2.21-2.54-2.25-.34,7.95,2.43,10.84,5.93,6,5.37,6.97,6.34,7.36-5,1.15-11.98,3.1-14.11,1.66-2.76-1.74,3.1,4.25,6.64,5.91,5.07,2.17,4.4,5.91,9.93,7.95,5.52,2.04,12.05,4.76,15.45,4,2.72-1.06,5.56-1.87,8.4-2.38,3.36-.47,9.03-5.53,15.49-6.46,6.05,4.25,12.28,8.17,18.66,11.74l1.01.55c-.75.04-1.49.17-2.2.34-2.31.64-11.79,3.02-14.11,1.74s2.39,5.83,5.22,8.51c-4.25,1.11-8.62,1.45-12.99,1.11-3.06-.77,6.19,9.44,9.85,10.59h.41c-2.24.98-4.63,1.62-7.02,1.83-3.21-.26,10.15,9.65,13.77,9.06,11.72-1.91,22.76,2.64,28.17,0,4.85-2.17,7.72-3.66,10.15-4.55s3.73-3.53,5.3-4.76c1.64-2.25,3.69-4.13,6.01-5.44l.22.43c4.1.3,8.25.3,12.35,0-1.83.81-3.55,2-5.04,3.44-6.05,2.17-10.9,4-12.46,4.89-7.05,5.32-13.62,11.44-19.52,18.37,0,0,9.93-.89,11.46-.89s5-7.78,6.53-9.19c.45-.34,2.99-1.83,6.68-3.78-6.79,12.42,3.1,22.62,3.1,22.62-2.65-3.53.34-9.7.34-9.7l5.41,3.91c-6.79-13.27,3.73-22.11,7.2-24.58l1.08-.47c.97,1.62,2.57,2.59,4.29,2.68,1.64-.09,3.17-.98,4.14-2.51l2.09.94c4.03,3.1,12.65,11.61,6.34,23.94l5.41-3.91s2.99,6.17.34,9.7c0,0,9.66-9.95,3.32-22.2,3.28,1.74,5.49,3.02,5.9,3.36,1.53,1.4,4.96,9.19,6.49,9.19s11.49.89,11.49.89c-5.9-6.93-12.46-13.1-19.55-18.37-3.77-1.74-7.61-3.27-11.53-4.55-1.57-1.62-3.4-2.89-5.37-3.78,4.1.3,8.25.3,12.35,0h0c2.13,1.32,4.03,3.06,5.6,5.15,1.53,1.23,2.84,3.78,5.3,4.76s5.3,2.38,10.15,4.55c5.41,2.51,16.46-2.04,28.14,0,3.73.6,17.02-9.31,13.81-9.06-2.43-.21-4.78-.85-7.05-1.83h.45c3.73-1.15,12.91-11.35,9.81-10.59-4.33.34-8.69,0-12.95-1.11,2.84-2.64,7.46-9.7,5.22-8.51s-11.83-1.11-14.14-1.74c-.71-.17-1.46-.3-2.16-.34l.97-.55c6.38-3.53,12.61-7.44,18.66-11.74,6.46.94,12.17,6,15.49,6.46,2.84.51,5.67,1.32,8.4,2.38,3.43.77,9.63-1.87,15.45-4,5.82-2.13,4.89-5.78,9.96-7.95,3.51-1.49,9.37-7.66,6.6-5.91-2.13,1.45-9.07-.51-14.07-1.66.93-.38.41-1.36,6.34-7.36,2.76-2.89,4.96-13.1,2.43-10.84-2.02,1.4-4.33,2.13-6.68,2.21,1.72-3.27,3.43-13.31,1.9-11.01-2.43,2.72-5.3,4.89-8.43,6.34,3.55-3.53,6.79-7.4,9.74-11.57,2.24-1.19,4.59-2.04,7.02-2.55,3.1,0,12.24,1.36,14.55-1.28s5.75-7.4,6.98-8.51c2.76-3.96,4.96-8.38,6.49-13.1,1.12-4.25,9.18-12.33,10.26-13.18-3.96-.81-8.06-.81-12.02,0,1.53-5.23,3.02-11.01,5.52-13.1,0,0-10.37,3.02-13.02,3.53-4.29.77-8.02,1.53-10.15,4.81,1.31-5.02,2.43-9.65,3.32-13.48,0-.72.37-1.7.67-2.81,1.27-2.21,3.17-3.83,5.37-4.64,7.46-2.89,14.59-3.53,17.35-6.63,2.76-3.1,4.18-5.19,5.3-6.55,2.05-2.68,3.66-5.78,4.63-9.19,1.04-4.59,1.79-9.23,2.31-13.95M559.55,427.03c-.41,6-1.19,11.95-2.39,17.82-.15-2.51-.75-4.93-1.75-7.14-1.08-2.64-2.65-2.64-3.4-5.27s-3.43-3.53-4.96-5.66c-1.27-1.62-2.69-3.1-4.18-4.47-1.08,5.44-1.34,11.06-.75,16.59.26.85.45,1.74.56,2.64l-2.13-.89c-2.02,5.15.34,10.42,1.08,15.22.71,2.13,1.6,4.21,2.65,6.17.78,1.74.45,3.36,1.23,4.76s2.39,1.32,4.14,3.15c0,2.34.3,4.64.93,6.85-1.49,5.61-3.13,11.35-4.85,17.01-.19-2.17-.82-4.21-1.87-6.04-1.49-2.08-2.65-4.47-3.4-7.02-1.57-4.81-4.63-4.81-5.07-9.57-.67,3.44-1.16,6.93-1.46,10.42-.26,3.06,0,6.21.67,9.19.11,2-.11,4-.67,5.87,0-2.64-.52-5.23-1.53-7.61-.75-1.62-1.04-3.44-.78-5.27-1.68,3.19-3.66,6.21-5.9,8.89l-1.42-2.76c20.11-40.1,15.41-108.79,14.67-118.19,3.25-.81,2.69-2.72,2.69-2.72l-.63-4.47c.3.26.63.47,1.01.55h.71c.49,0,.93-.17,1.34-.47.6-.51.97-1.28,1.01-2.08h0c1.12,1.57,2.5,2.89,4.1,3.78,2.76.85,5.07,2.25,5.41,3.53h0c1.75,8.21,3.06,16.54,3.92,24.96h0c-3.1-3.91-3.73-11.31-10.71-15.35.19,1.79.19,3.53,0,5.32-.45,2.25-.67,4.55-.63,6.85-2.05-1.57-3.84-3.53-5.26-5.87-.6,5.57-.07,11.27,1.57,16.59,2.72,5.66,2.72,8.51,5.71,9.95,1.72.68,3.28,1.74,4.63,3.15,1.38,1.15,2.99,1.87,4.66,2.13.41,0,.78.3,1.01.68.15.89.37,1.79.6,2.64v6.51M292.52,379.78l20.41,16.37c-.3,8.72.71,17.44,2.91,25.77l-16.94,32.28c-2.84-6.93-9.96-29.77-6.38-74.42M261.02,360.77c.82-1.53,2.16-2.64,3.73-3.02.07,1.74-.41,3.49-1.34,4.89-.26.43-.63.72-1.08.89-.34.17-.71.17-1.04,0-.26-.26-.45-.64-.49-1.02,0-.55.11-1.11.41-1.57M328.38,307.1l16.23,20.41c-.37,5.61-1.04,23.18,3.21,34.02l-14.93,28.2c-3.73-8.17-10.86-32.28-4.66-82.8M391.67,293.74c7.2-1.4,14.55-1.4,21.76,0l2.31,4.25c-8.69-2.21-17.69-2.21-26.38,0l2.31-4.25h0ZM393.53,290.21l9.03-17.01,8.99,17.01c-5.97-.89-12.05-.89-18.02,0M387.34,302.04c9.96-3.1,20.45-3.1,30.41,0l2.5,4.76c-11.46-4.59-23.99-4.59-35.45,0l2.54-4.76h0ZM382.11,311.73c12.84-6.29,27.43-6.29,40.26,0l62.43,118.87h-22.91c-1.04-.72-2.05-1.53-2.99-2.38-.34-.34-.71-.64-1.08-.94-1.49-1.11-3.36-1.53-5.11-1.11-.93.21-1.83.6-2.69,1.11s-1.64,1.11-2.39,1.79h-.26c-.41-.13-.78-.34-1.16-.55-2.05-1.15-3.92-2.55-5.63-4.25-.56-.51-1.16-.98-1.79-1.36-1.04-.64-2.24-.98-3.43-.98-.82,0-1.64.17-2.43.43-1.12.38-2.2.98-3.17,1.7-.67.47-1.31.98-1.94,1.53h-.22c-1.19-.85-2.43-1.53-3.73-2.13-1.16-.55-2.28-1.19-3.32-1.91-1.49-1.02-2.91-2.17-4.25-3.49-.49-.47-1.01-.85-1.53-1.19-1.12-.77-2.43-1.23-3.73-1.32-.86-.13-1.75-.13-2.61,0-1.16.3-2.31.81-3.36,1.45-.56.34-1.08.77-1.64,1.19v-41.21c3.73-.3,6.75-1.79,6.75-3.61s-2.72-14.25-6.38-17.01c-2.2-1.79-5.15-1.87-7.46-.26,0,0-4.78,3.15-2.31,7.57,0,0,.49,1.32,2.57.38.9-.43,1.49-1.32,1.68-2.38v1.11c0,1.53-1.87,2.34-1.94,2.42-.93,2.76-1.57,5.61-1.94,8.51,0,1.83,2.99,3.36,6.83,3.61v41.76l-.37-.21c-1.57-1.11-3.1-2.34-4.52-3.7-.52-.51-1.04-.94-1.64-1.32-1.16-.77-2.43-1.23-3.73-1.36-1.01-.17-2.05-.17-3.06,0-1.23.3-2.39.81-3.51,1.49-1.16.72-2.24,1.53-3.28,2.42h-.52l-1.42-.94c-.67-.43-1.38-.81-2.09-1.11-.93-.38-1.83-.85-2.72-1.4-2.54-1.53-4.96-3.36-7.16-5.49l-.63-.55c-1.68-1.53-3.73-2.47-5.9-2.68h-1.68c-1.38.13-2.76.55-4.07,1.15-1.49.72-2.91,1.57-4.22,2.64-1.49,1.23-2.87,2.55-4.22,4-1.68,1.87-3.25,3.87-4.74,5.95-1.42,2.04-2.76,4.25-3.99,6.34l-.22.34c-.9,1.23-1.87,2.47-2.87,3.61s-1.27,1.32-1.9,2h-12.76l62.13-118.53h0ZM471.97,389.77l-14.93-28.15c4.22-11.01,3.55-28.58,3.21-34.02l16.23-20.41c6.16,50.44-1.12,74.59-4.66,82.76M540,358c1.49.47,2.76,1.57,3.55,3.1.3.43.41.94.37,1.49,0,.43-.19.77-.49,1.02-.34.17-.67.17-1.01,0-.45-.17-.86-.47-1.12-.94-.93-1.36-1.42-3.1-1.31-4.85M505.67,454.24l-16.94-32.28c2.16-8.25,3.13-16.88,2.87-25.52l20.45-16.37c3.73,44.78-3.55,67.41-6.38,74.38M286.73,493.41l15.93-30.36h193.3-.22l-1.01-.6c-1.16-.81-2.24-1.7-3.28-2.64-1.9-1.7-3.73-3.53-5.49-5.4-2.54-2.72-5-5.57-7.46-8.51-1.57-1.91-3.13-3.78-4.66-5.78-.67-.85-1.34-1.66-2.09-2.42-1.27-1.45-2.69-2.72-4.22-3.83-.67-.47-1.38-.89-2.09-1.28h20.37l31.94,60.9-231.02-.09h0ZM318.68,432.51h11.83c-2.28,2.25-4.66,4.38-7.13,6.34l-.67.47c-1.27.94-2.54,1.96-3.73,3.02-2.02,1.74-3.73,3.61-5.82,5.53s-3.73,3.87-5.49,5.87l11.01-21.22h0ZM401.78,424.26l1.38.68c.52.21,1.01.47,1.49.77,1.38.85,2.69,1.83,3.92,2.93,2.05,1.83,3.92,3.87,5.63,6.08,2.61,3.36,5.3,6.63,8.06,9.87l3.4,3.96c2.91,3.27,5.9,6.51,8.96,9.57l.6.55h-14.93s-.3.04-.45,0l-1.01-.89c-2.09-1.87-4.14-3.87-6.12-5.87s-4.52-4.76-6.68-7.19c-4.78-5.36-9.4-10.84-13.92-16.5-.78-.98-1.53-1.96-2.35-2.93-1.72-2.13-3.58-4.08-5.56-5.83h-.22c.93-.81,1.98-1.49,3.1-1.96.6-.3,1.23-.47,1.9-.6,1.16-.17,2.31.04,3.36.68.49.3.93.68,1.38,1.06,1.19,1.11,2.43,2.13,3.73,3.06,1.42,1.06,2.87,2.04,4.4,2.85M462.79,436l.71.34c.56.26,1.12.6,1.64.94,1.42.98,2.76,2.13,3.96,3.44.78.81,1.53,1.66,2.24,2.59,1.42,1.83,2.84,3.61,4.33,5.36l4.03,4.68c1.64,1.91,3.32,3.7,5.04,5.49,0,0,.19,0,.22.3h-8.51c-.19,0-.37-.09-.52-.21-1.57-1.49-3.13-3.02-4.63-4.59s-2.91-3.1-4.33-4.72c-3.13-3.53-6.16-7.14-9.11-10.89-.63-.77-1.23-1.57-1.9-2.34-1.46-1.7-3.02-3.27-4.74-4.64h-.22c.71-.55,1.49-.94,2.31-1.15s1.64-.04,2.35.43c.3.21.56.47.82.72,1.9,1.7,3.99,3.15,6.23,4.25M451.3,437.28c1.16,1.11,2.24,2.34,3.25,3.66,2.16,2.76,4.4,5.49,6.68,8.21s4.14,4.76,6.31,7.06l2.57,2.68.22.26h-12.02s-.26.09-.41,0l-2.35-2.17c-2.2-2.17-4.37-4.25-6.46-6.68l-3.73-4.25c-3.13-3.57-6.16-7.23-9.14-10.97l-1.98-2.47c-1.08-1.32-2.24-2.55-3.47-3.7h0c.78-.68,1.64-1.23,2.54-1.66.56-.26,1.19-.43,1.79-.47.67,0,1.31.13,1.9.47.41.26.78.55,1.12.89,1.83,1.66,3.84,3.06,5.93,4.25.6.34,1.19.64,1.83.89.56.26,1.12.6,1.64.94,1.31.94,2.57,2,3.73,3.15M432.94,437.36c1.68,2.17,3.4,4.3,5.15,6.38,1.57,1.91,3.17,3.78,4.81,5.66,2.76,3.15,5.56,6.25,8.51,9.19l.67.64h-10.71s-.34.04-.49,0l-2.35-2.17c-2.5-2.42-4.93-4.93-7.46-7.53l-3.73-4.25c-3.36-3.83-6.64-7.78-9.85-11.78-.75-.94-1.46-1.87-2.24-2.81-1.9-2.25-3.96-4.3-6.19-6.12-1.08-.81-2.2-1.57-3.36-2.25h0c.97-.72,2.05-1.23,3.17-1.57.56-.09,1.16-.09,1.72,0,.67.09,1.34.3,1.94.68.45.3.9.68,1.31,1.06,2.28,2.13,4.81,3.96,7.46,5.44l1.16.6c.67.26,1.34.64,1.94,1.06,1.42.94,2.72,2,3.99,3.19,1.57,1.53,3.06,3.19,4.44,4.93M385.88,426.56c1.04,1.19,2.02,2.42,2.99,3.66l3.28,4.25c1.98,2.42,3.99,4.85,6.01,7.19,3.73,4.25,7.46,8.51,11.19,12.38,1.46,1.53,2.95,3.06,4.52,4.51l.22.26h-105.68v-.21l1.46-1.66c1.57-1.79,3.17-3.53,4.81-5.23,1.98-2.04,3.99-4.04,6.12-5.91,1.31-1.11,2.65-2.17,4.03-3.1l1.16-.89c3.36-2.64,6.53-5.57,9.48-8.76,1.72-1.79,3.32-3.74,4.78-5.83.11-.13.19-.26.26-.43,1.23-2.25,2.61-4.42,4.1-6.46,1.16-1.66,2.43-3.27,3.73-4.76,1.38-1.57,2.87-3.02,4.48-4.25,1.04-.85,2.16-1.53,3.36-2.04.78-.38,1.6-.64,2.46-.77,1.46-.17,2.95.13,4.25.94.56.38,1.12.81,1.64,1.28,1.19,1.15,2.43,2.21,3.73,3.19,1.49,1.15,3.02,2.17,4.63,3.1.86.47,1.72.94,2.57,1.32.6.26,1.16.55,1.72.89,1.46.94,2.87,2,4.22,3.15,1.53,1.32,2.99,2.76,4.37,4.25M361.92,501.15c5.11,4.3,10.9,7.48,17.02,9.36-4.07,1.4-30.67,9.4-53.4-9.36h36.38ZM398.2,525.73s2.5-15.1,3.99-24.58h0c1.46,9.48,3.99,24.58,3.99,24.58.56,5.1-.9,10.25-3.99,14.03-3.13-3.74-4.59-8.89-3.99-14.03M442.49,501.15h36.38c-22.73,18.75-49.33,10.76-53.44,9.36,6.16-1.87,11.94-5.02,17.05-9.36M535.03,352.6c-.3-.47-.41-1.06-.34-1.66.07-.3.19-.55.37-.77l.34.3c1.27.94,2.39,2.21,3.21,3.66.11.51.11,1.06,0,1.57-1.53-.47-2.87-1.57-3.73-3.1M506.3,280.05c-.67.64-1.68.55-2.24-.21-1.08-1.11-1.83-2.59-2.13-4.25v-.26c1.42.13,2.76.89,3.73,2.13.71.55.86,1.66.37,2.47M503.02,268.01l4.1-1.62h0l-1.01,4.81-3.28.55.19-3.74ZM495.55,268.91c.22-.3.56-.43.9-.43.52,0,1.01.26,1.38.64,1.12,1.11,1.87,2.59,2.13,4.25-.22-.09-.49-.09-.71,0-1.23-.3-2.39-1.02-3.32-2-.67-.6-.82-1.66-.37-2.47M406.97,212.64h.45c.86-.09,1.6.6,1.75,1.57,0,.85-.78,1.53-1.79,1.53-1.53.09-3.06-.43-4.25-1.53,1.01-1.06,2.35-1.62,3.73-1.57M401.82,203.41h0l2.09,4.25-2.09,2.89-2.09-2.89,2.09-4.25ZM396.4,215.79h0c-.52,0-1.01-.21-1.38-.6-.22-.26-.37-.6-.37-.98,0-.34.15-.68.37-.94.41-.43.93-.64,1.46-.6,1.53-.17,3.06.38,4.22,1.53-1.23,1.11-2.72,1.66-4.29,1.57M400.92,244.54c1.9-3.66,3.32-7.61,4.25-11.74,1.42,9.36.93,18.97-1.42,28.07l-1.94-3.7-6.42,12.21c-.6-8.76,1.34-17.48,5.52-24.84M306.47,269.21c.37-.43.86-.64,1.38-.6.34,0,.63.13.86.43.19.26.3.64.26.98,0,.6-.26,1.15-.67,1.53-1.01,1.11-2.31,1.87-3.73,2.08h-.22c.22-1.7,1.04-3.23,2.24-4.25M297.11,266.7h0l4.1,1.62v3.74h0l-3.25-.55s-.86-4.81-.86-4.81ZM299.01,280.65c-.34,0-.63-.13-.86-.43-.19-.26-.3-.64-.26-.98,0-.6.3-1.19.71-1.57.97-1.19,2.31-1.91,3.73-2.08h.3c-.3,1.66-1.08,3.15-2.24,4.25-.37.38-.86.6-1.38.6M269.57,352.73c-.86,1.53-2.2,2.59-3.73,3.06-.07-.51-.07-.98,0-1.49.86-1.49,1.98-2.76,3.28-3.74l.3-.26c.22.26.34.55.37.89,0,.55-.11,1.11-.41,1.53M244.45,420.77c.26-.85.49-1.74.63-2.64.22-.38.6-.64,1.01-.68,1.68-.26,3.25-.98,4.63-2.13,1.34-1.4,2.91-2.47,4.63-3.15,2.99-1.28,2.99-4.25,5.75-9.95,1.64-5.32,2.16-11.01,1.53-16.59-1.38,2.34-3.17,4.34-5.22,5.87,0-2.3-.22-4.59-.63-6.85-.19-1.79-.19-3.53,0-5.32-6.87,4.04-7.46,11.44-10.71,15.35h0c.78-8.42,2.05-16.76,3.73-24.96h0c.34-1.28,2.65-2.68,5.41-3.53,1.57-.85,2.95-2.13,4.03-3.7h0c.04,1.45,1.08,2.59,2.35,2.55h.67c.37-.09.75-.3,1.04-.55l-.63,4.47s-.56,1.91,2.69,2.72c-.78,9.4-5.49,78.12,14.7,118.27l-1.38,2.64c-2.28-2.68-4.25-5.66-5.9-8.85.26,1.83,0,3.66-.78,5.27-1.01,2.38-1.53,4.98-1.53,7.61-.56-1.87-.78-3.87-.67-5.87.67-2.98.9-6.12.67-9.19-.3-3.49-.78-6.97-1.46-10.42-.45,4.76-3.73,4.76-5.07,9.57-.75,2.55-1.9,4.93-3.43,7.02-1.04,1.79-1.68,3.87-1.83,6.04-1.75-5.7-3.36-11.44-4.85-17.01.6-2.21.93-4.51.93-6.85,1.75-1.83,3.43-2,4.14-3.15s.45-3.02,1.19-4.76c1.04-1.96,1.94-4,2.65-6.17.78-4.81,3.1-10.08,1.12-15.22l-2.13.89c.11-.89.3-1.79.56-2.64.6-5.53.34-11.14-.78-16.59-1.68,1.45-3.21,3.02-4.63,4.76-1.53,2.13-4.18,3.02-4.96,5.66s-2.31,2.64-3.43,5.27c-.97,2.21-1.57,4.64-1.72,7.14-1.19-5.87-1.98-11.82-2.39-17.82v-6.51M417.71,602.07c-3.43,0-6.83,1.02-9.89,2.85v-.34c4.03-7.83,8.51-15.31,13.43-22.41,2.28,6.85.93,14.54-3.43,19.9M397.26,604.92c-3.06-1.83-6.46-2.81-9.89-2.85-4.37-5.36-5.71-13.06-3.43-19.9,4.93,7.1,9.4,14.59,13.43,22.41v.34M515.55,549.63c.22-.38.37-.81.49-1.28.9-2.72,1.42-5.61,1.53-8.51-.41-3.57-1.19-7.06-2.31-10.42-1.08-3.15-3.73-10.42-6.49-11.82,0,0-2.2,8.29-2.99,11.31-.49,2.98-1.42,5.87-2.76,8.51-.34.55-.97,1.79-1.72,3.32-.19-1.96-.19-3.91,0-5.87.45-5.78-7.46-14.8-7.46-14.8.78,2.51-2.31,12.55-3.73,14.8-2.2,3.87-3.66,8.21-4.22,12.76-.22,3.15-1.31,6.12-3.1,8.51-2.28,3.57.3,18.5.6,20.2-5.15,3.61-10.49,7.14-15.49,9.99-1.49.85-3.17,1.7-5,2.59l1.01-1.06c3.55-3.61,6.12-8.29,7.46-13.48,2.39-.47-3.21-1.15-6.46-.85,1.9-3.27,4.55-7.78,6.34-11.61,1.46-3.15-12.35,1.02-12.35,1.02l-3.73,1.62c1.04-3.61,1.75-7.31,2.2-11.06,0-1.23-5.82.89-10.45,3.15-3.43,2.34-6.72,4.98-9.74,7.95-4.07,2.98-4.63,10.55-6.49,14.08-1.01,1.83-1.83,3.83-2.43,5.87,0-2.34-1.01-4.59-2.72-5.87h-.22l-.75-.26c-.9-.21-2.31-.47-4.59-.77-4.03-.94-8.13,1.02-10.37,4.93-2.05,6-3.73,12.16-5.04,18.46-1.19-.64-2.54-.64-3.73,0-1.31-6.29-2.99-12.46-5.04-18.46-2.24-3.91-6.34-5.87-10.37-4.93-2.28.3-3.73.55-4.59.77l-.75.26h-.22c-1.42.85-2.8,2.98-2.84,8.17-.45-2.93-1.46-5.7-2.87-8.17-1.87-3.53-2.43-11.1-6.53-14.08-3.02-2.98-6.27-5.66-9.7-7.95-4.63-2.25-10.37-4.25-10.49-3.15.49,3.74,1.23,7.44,2.24,11.06l-3.73-1.62s-13.81-4.25-12.39-1.02c1.83,3.83,4.48,8.51,6.38,11.61-3.28-.3-8.88.38-6.49.85,1.38,5.19,3.96,9.82,7.46,13.48l1.04,1.06c-1.83-.89-3.73-1.74-5.04-2.59-4.96-2.85-10.3-6.38-15.45-9.99.3-1.7,2.87-16.63.56-20.2-1.79-2.38-2.87-5.36-3.06-8.51-.6-4.55-2.02-8.89-4.22-12.76-1.53-2.25-4.63-12.29-3.73-14.8,0,0-8.02,9.02-7.46,14.8.22,1.96.22,3.91,0,5.87-.71-1.53-1.34-2.76-1.68-3.32-1.34-2.64-2.28-5.49-2.76-8.51-.78-3.02-2.99-11.31-2.99-11.31-2.76,1.4-5.41,8.51-6.53,11.82-1.08,3.36-1.87,6.85-2.31,10.42-.45,2.17,1.23,6.29,1.57,8.51.07.47.22.89.45,1.28-5.82-4.81-10.9-10.76-14.93-17.56.15-1.66.71-3.27,1.64-4.59,2.43-2.98,4.37-6.38,5.75-10.08.37-2.64.37-5.27,0-7.91.22-2.59.6-5.23,1.08-7.78v-.51h6.46c11.46,9.61,52.65,39.21,101.09,15.1-.15.72-.45,1.4-.78,2,0,0-10.41,16.08,13.14,21.52h0c23.51-5.44,13.1-21.52,13.1-21.52-.34-.64-.56-1.32-.75-2,48.51,24.16,89.56-5.49,101.13-15.1h6.49v.51c.49,2.55.86,5.19,1.08,7.78-.41,2.64-.41,5.27,0,7.91,1.38,3.74,3.32,7.14,5.75,10.08.9,1.32,1.46,2.93,1.6,4.59-4.1,6.85-9.22,12.76-15.11,17.56"/>
  <path class="st0" d="M477.98,564.6c-1.23-.04-2.28,1.06-2.31,2.47v.04c-.04,1.45.93,2.64,2.2,2.68h.11c1.27,0,2.31-1.23,2.31-2.68-.07-1.4-1.08-2.51-2.31-2.51"/>
  <path class="st0" d="M491,582.85c-1.27,0-2.31,1.19-2.31,2.64-.04,1.4.93,2.59,2.16,2.64h.15c1.27,0,2.28-1.19,2.31-2.64-.04-1.45-1.04-2.59-2.31-2.64"/>
  <path class="st0" d="M521.26,525.22c-1.27,0-2.31,1.23-2.31,2.68.04,1.45,1.04,2.59,2.31,2.64,1.27,0,2.28-1.19,2.31-2.64s-.93-2.64-2.2-2.68h-.11"/>
  <path class="st0" d="M537.5,538.32c0,1.57,1.16,2.85,2.54,2.89,1.34.04,2.5-1.19,2.54-2.72v-.17c0-1.57-1.16-2.85-2.54-2.89-1.38.09-2.46,1.32-2.54,2.89"/>
  <path class="st0" d="M543.43,476.57c1.34.04,2.5-1.19,2.54-2.72v-.17c0-1.57-1.16-2.85-2.54-2.89-1.38.09-2.46,1.32-2.54,2.89,0,1.57,1.16,2.85,2.54,2.89"/>
  <path class="st0" d="M551.19,418.48c-1.34-.04-2.5,1.19-2.54,2.72v.17c0,1.62,1.12,2.89,2.54,2.89s2.54-1.28,2.54-2.89-1.08-2.85-2.46-2.89h-.07"/>
  <path class="st0" d="M565.26,371.27c1.38.21,2.61-.94,2.8-2.47.19-1.57-.82-2.98-2.16-3.19h-.6c-1.42,0-2.54,1.28-2.54,2.89.07,1.53,1.19,2.76,2.54,2.76"/>
  <path class="st0" d="M547.31,376.59c1.38,0,2.5-1.23,2.54-2.81v-.09c0-1.62-1.12-2.89-2.54-2.89s-2.54,1.28-2.54,2.89,1.12,2.89,2.54,2.89h0"/>
  <path class="st0" d="M532.2,329.55c-.04-1.57-1.16-2.81-2.54-2.76-1.38-.21-2.61.94-2.8,2.47-.19,1.57.82,2.98,2.16,3.19h.6c1.38,0,2.5-1.23,2.54-2.81v-.09"/>
  <path class="st0" d="M543.09,320.24c1.34.04,2.5-1.19,2.54-2.72v-.17c0-1.62-1.12-2.89-2.54-2.89s-2.54,1.28-2.54,2.89,1.08,2.85,2.46,2.89h.07"/>
  <path class="st0" d="M568.51,421.88c.04,1.57,1.16,2.81,2.54,2.76,1.34,0,2.43-1.23,2.43-2.76s-1.08-2.76-2.43-2.76c-1.34-.04-2.5,1.19-2.54,2.72v.04"/>
  <path class="st0" d="M326.74,564.6c-1.23,0-2.24,1.11-2.31,2.51,0,1.45,1.04,2.64,2.31,2.68,1.27,0,2.28-1.11,2.31-2.55v-.13c0-1.4-1.04-2.55-2.28-2.51h-.04"/>
  <path class="st0" d="M316.03,585.49c0-1.45-1.04-2.64-2.31-2.64-1.27.04-2.28,1.19-2.31,2.64,0,1.45,1.04,2.64,2.31,2.64s2.28-1.11,2.31-2.55v-.09"/>
  <path class="st0" d="M283.45,525.22c-1.27,0-2.28,1.11-2.31,2.55v.13c0,1.45,1.04,2.59,2.31,2.64,1.27-.04,2.28-1.19,2.31-2.64,0-1.45-1.04-2.64-2.31-2.68"/>
  <path class="st0" d="M264.68,541.38c1.38,0,2.5-1.32,2.54-2.89-.07-1.57-1.16-2.81-2.54-2.89-1.38,0-2.5,1.32-2.54,2.89-.04,1.53,1.04,2.85,2.39,2.89h.15"/>
  <path class="st0" d="M261.25,470.79c-1.38,0-2.5,1.32-2.54,2.89,0,1.57,1.08,2.85,2.46,2.89h.07c1.42,0,2.54-1.28,2.54-2.89-.07-1.57-1.16-2.81-2.54-2.89"/>
  <path class="st0" d="M248.07,478.95c0-1.57-1.08-2.85-2.46-2.89h-.07c-1.42,0-2.54,1.28-2.54,2.89s1.12,2.89,2.54,2.89,2.5-1.23,2.54-2.81v-.09"/>
  <path class="st0" d="M253.52,424.26c1.38,0,2.5-1.32,2.54-2.89,0-1.62-1.12-2.89-2.54-2.89s-2.54,1.28-2.54,2.89,1.16,2.85,2.54,2.89"/>
  <path class="st0" d="M239.42,371.27c1.38.21,2.61-.94,2.8-2.47.19-1.57-.82-2.98-2.16-3.19h-.6c-1.38-.21-2.61.94-2.8,2.47-.19,1.57.82,2.98,2.16,3.19h.6"/>
  <path class="st0" d="M257.4,370.8c-1.42,0-2.54,1.28-2.54,2.89s1.12,2.89,2.54,2.89,2.54-1.28,2.54-2.89-1.16-2.85-2.54-2.89"/>
  <path class="st0" d="M272.52,329.55c-.04,1.53,1.04,2.85,2.39,2.89h.15c1.38.21,2.61-.94,2.8-2.47.19-1.57-.82-2.98-2.16-3.19h-.6c-1.34-.04-2.5,1.19-2.54,2.72v.04"/>
  <path class="st0" d="M261.58,320.24c1.34.04,2.5-1.19,2.54-2.72v-.17c0-1.62-1.12-2.89-2.54-2.89s-2.54,1.28-2.54,2.89,1.08,2.85,2.46,2.89h.07"/>
  <path class="st0" d="M236.21,421.88c.04-1.57-1.04-2.89-2.43-2.93-1.38-.04-2.54,1.19-2.57,2.76s1.04,2.89,2.43,2.93h0c1.34.04,2.5-1.19,2.54-2.72v-.04"/>
  <path class="st0" d="M372.49,381.39c1.12-.26,1.46,0,1.87,1.23l.67-.26-.67-1.74,4.44-2.13-.45-1.02-6.19,3.15.34.77h0Z"/>
  <path class="st0" d="M371.22,372.29h-.86l.75,3.91,3.73-.38v-.77c-.49-.17-.9-.64-1.01-1.23-.19-.89.3-1.79,1.08-2h0c.71-.34,1.53.04,1.79.85,0,.09.04.17.07.26.26.72,0,1.53-.63,1.87-.04,0-.07,0-.11.04l.19.98c1.04-.34,1.68-1.57,1.38-2.76v-.13c-.15-1.4-1.27-2.38-2.5-2.21-.11,0-.26.04-.37.09-1.16.26-1.9,1.53-1.68,2.85v.17c.11.55.37,1.02.75,1.36h-1.87l-.75-2.89h.04Z"/>
  <path class="st0" d="M371.22,366.04c1.23,0,1.57-1.02,1.79-1.53l.45-1.62c.3-1.28.52-1.66,1.31-1.53s1.12,1.4,1.01,2.13-.56,2.17-1.79,2.04v.98c.67.13,1.38-.09,1.9-.6.49-.64.75-1.45.75-2.3,0-1.36-.22-3.15-1.87-3.27-.9-.17-1.72.51-1.87,1.53l-.67,2.25c-.11.55-.52.89-1.01.89-.97,0-1.08-1.28-.97-2-.07-.89.52-1.7,1.34-1.79h.19v-.98c-.75,0-2.2,0-2.43,2.89-.22,1.36.56,2.64,1.75,2.85h.22"/>
  <polygon class="st0" points="378.57 353.96 377.78 353.71 376.48 358.22 374.24 357.37 375.47 353.33 374.69 352.94 373.49 357.07 371.51 356.35 372.82 351.92 371.93 351.58 370.4 357.07 377.04 359.49 378.57 353.96"/>
  <path class="st0" d="M379.54,352.22l-2.54-1.79,1.08-2.08c.67-1.02.45-2.47-.45-3.19-.07-.04-.15-.09-.19-.17-.41-.3-.93-.43-1.42-.26-.56.17-1.04.6-1.34,1.15l-1.53,3.02,5.82,4.25.56-.94h0ZM374.35,348.43l1.04-1.83c.19-.47.6-.72,1.04-.72.15.09.3.17.45.3.49.26.71.94.49,1.53-.04.13-.11.26-.22.34l-.9,1.66-1.9-1.28h0Z"/>
  <polygon class="st0" points="379.13 341.12 383.53 345.88 384.09 345.16 379.76 340.35 381.44 338.36 380.77 337.72 376.89 342.4 377.45 342.99 379.13 341.12"/>
  <polygon class="st0" points="387.19 342.27 382.97 335.97 382.3 336.61 386.4 342.86 387.19 342.27"/>
  <polygon class="st0" points="392.79 338.48 392.49 337.72 388.72 339.89 387.71 337.59 391.03 335.59 390.7 334.7 387.26 336.74 386.29 334.57 389.91 332.44 389.61 331.55 385.06 334.19 388.27 341.25 392.79 338.48"/>
  <path class="st0" d="M394.46,337.97l-.9-4.64c-.22-.6-.37-1.28-.41-1.91l3.17,6.04,1.01-.21.67-6.93c.19.6.3,1.23.34,1.87l.86,4.55h.9l-1.46-7.83-1.31.38-.67,7.06-3.21-6.04-1.31.26,1.53,7.66.78-.26h0Z"/>
  <path class="st0" d="M404.02,336.65c1.57,0,2.46-.81,2.46-2.08.07-.89-.41-1.74-1.19-2,.6-.26,1.01-.89.97-1.62,0-1.15-.52-2.04-1.83-2.17h-3.02l-.34,7.87h2.95ZM402.45,329.77h1.49c1.01,0,1.34.34,1.34,1.11s-.52,1.15-1.42,1.02h-1.6l.19-2.13ZM403.94,333.21c.67,0,1.42.26,1.42,1.28s-.52,1.28-1.42,1.28h-1.75v-2.55h1.75Z"/>
  <path class="st0" d="M408.87,334.1l2.24.77c1.12.34.97,1.06.9,1.7-.22.6-.37,1.28-.34,1.91l1.12.34h0c-.22-.26,0-.38,0-.89v-1.36c.34-1.02,0-1.36-.34-1.62.45-.26,1.12-.43,1.38-1.57s-.6-2.34-1.68-2.68l-3.1-1.19-1.83,7.7.86.26.78-3.36h0ZM409.99,330.79l2.02.81c.41,0,1.12.34.78,1.45s-.86.94-1.53.81l-1.9-.64.63-2.42Z"/>
  <polygon class="st0" points="417.86 342.27 418.2 341.5 414.65 339.12 415.77 336.87 419.09 338.99 419.5 338.23 416.22 335.97 417.3 333.98 420.85 336.36 421.29 335.46 416.89 332.57 413.46 339.38 417.86 342.27"/>
  <path class="st0" d="M422.15,347.24c1.19,1.45,3.21,1.53,4.48.17l.15-.17c1.38-.98,1.83-3.1.93-4.68-.07-.13-.15-.26-.22-.38l-1.83-2.38-5.26,5.02,1.75,2.42h0ZM426.59,342.99c.78,1.02.67,2.08-.56,3.36s-2.31,1.11-3.1,0l-1.01-1.36,3.73-3.53.93,1.53h0Z"/>
  <polygon class="st0" points="426.82 355.83 427.56 355.45 425.7 351.2 427.79 350.05 429.47 353.96 430.21 353.45 428.46 349.67 430.44 348.56 432.23 352.69 432.97 352.3 430.66 347.16 424.5 350.69 426.82 355.83"/>
  <path class="st0" d="M432.64,360.9l-4.74.72v1.02l6.72-1.15v-.77c-1.08,0-1.19-.47-1.53-1.74h-.63l.19,1.91Z"/>
  <path class="st0" d="M433.2,365.45c-.63-.04-1.19.43-1.34,1.11-.19-.89-.9-1.49-1.68-1.53-.6-.04-1.19.21-1.6.72-.34.55-.52,1.23-.52,1.91-.15,1.23.56,2.38,1.64,2.55h.34c.75.17,1.46-.3,1.75-1.06.19.64.75,1.06,1.34.98.9,0,1.83-.51,1.83-2.25.19-1.15-.49-2.21-1.46-2.42h-.3M430.03,369.19c-1.01,0-1.12-.94-1.12-1.53-.04-.72.41-1.32,1.04-1.36h.22c.6,0,1.08.55,1.08,1.23v.3c.07.64-.3,1.28-.86,1.36h-.34M433.2,369.19c-.6-.13-1.04-.72-1.04-1.45,0-.64.49-1.15,1.04-1.11h0c.45,0,1.01.26.9,1.28s-.56,1.28-.9,1.28"/>
  <path class="st0" d="M432.23,371.95v.98c.45,0,1.57.51,1.23,1.91s-.97,1.36-1.42,1.11-1.12-.85-1.34-1.74l-.22-1.15c-.34-1.23-1.19-2.21-2.31-2.51l-1.12,5.15.78.26.9-4.25c.34,0,.75.51.97,1.62l.26.89c.3,1.36.63,2.38,1.75,2.64,1.12.34,2.24-.47,2.54-1.74h0c.37-1.36-.3-2.76-1.49-3.19-.11,0-.26-.09-.37-.09"/>
  <path class="st0" d="M430.92,379.23l-.63,1.66-4.33-2.42-.45,1.02,6.19,3.27.22-.77c-.9-.77-.78-1.28-.34-2.51l-.67-.26h0Z"/>
  <path class="st0" d="M393.9,407h.75l5.07-23.86h-.75l-5,23.56-.07.3Z"/>
  <path class="st0" d="M393.2,396.79l.71.3,4.25-14.12-.75-.26-4.18,14.08h-.04Z"/>
  <path class="st0" d="M386.14,405.51l.67.34,9.81-23.48-.71-.34-9.78,23.26v.21Z"/>
  <path class="st0" d="M384.43,401.59l10.64-19.99-.67-.43-10.6,19.86.63.55h0Z"/>
  <path class="st0" d="M377.86,401.89v.21l.6.51,15.15-21.99-.56-.55-15.19,21.82Z"/>
  <path class="st0" d="M378.87,396.49l13.36-17.01h0l-.56-.55-13.4,17.01.6.55h0Z"/>
  <path class="st0" d="M391.07,378.29l-.45-.64-19.81,19.9.49.64,19.74-19.82v-.09h.04Z"/>
  <path class="st0" d="M389.87,376.8h0c0-.26-.34-.43-.49-.68l-10.45,8.51h0l.41.68,10.52-8.51Z"/>
  <path class="st0" d="M389.05,375.27l-.34-.72-7.46,4.64.37.77,7.43-4.68h0Z"/>
  <path class="st0" d="M380.32,376.84l.3.77,7.72-3.83-.37-.77-7.65,3.83Z"/>
  <polygon class="st0" points="379.43 374.21 379.65 375.01 387.52 372.12 387.67 372.04 387.45 371.23 379.43 374.21"/>
  <path class="st0" d="M387.22,370.29v-.81l-8.21,2.04v.85l8.21-2.08h0Z"/>
  <path class="st0" d="M378.38,368.72v.85l8.47-1.06v-.85l-8.47,1.06Z"/>
  <path class="st0" d="M378.27,366.72h8.51v-.85h-8.51v.85Z"/>
  <path class="st0" d="M378.42,364.09l8.32.81h0v-.85l-8.28-.85h-.19l.15.89h0Z"/>
  <path class="st0" d="M378.68,361.02l8.4,2.08v-.85l-8.4-2.08v.85Z"/>
  <path class="st0" d="M379.31,358.51l7.95,2.98h0l.22-.81-8.02-3.02-.15.85h0Z"/>
  <path class="st0" d="M380.32,355.07l-.3.77,7.87,3.83c0-.3.22-.51.3-.81l-7.69-3.74h-.19v-.04Z"/>
  <path class="st0" d="M381.11,353.28l7.46,4.64h0c.11-.26.22-.51.37-.77l-7.46-4.68-.37.81Z"/>
  <path class="st0" d="M382.41,350.94l6.83,5.53c0-.26.34-.43.49-.68l-6.87-5.57-.45.72h0Z"/>
  <path class="st0" d="M384.65,348.01l-.49.68,6.27,6.17h0l.49-.64-6.16-6.08-.11-.13h0Z"/>
  <path class="st0" d="M386.44,346.1l-.56.6,5.75,6.85s.37-.38.56-.55l-5.63-6.76-.11-.13Z"/>
  <path class="st0" d="M388.34,344.35l-.6.51,5.19,7.4s.37-.38.6-.51l-5.07-7.27-.11-.13Z"/>
  <path class="st0" d="M390.73,342.78l-.67.43,4.1,8.04h0l.67-.43-4.07-7.95v-.09h-.04Z"/>
  <path class="st0" d="M392.86,341.5l-.67.38,3.4,8.51.71-.34-3.36-8.21-.07-.34h0Z"/>
  <path class="st0" d="M395.29,340.69l-.75.3,2.72,8.76c.22-.13.45-.21.71-.26l-2.65-8.51v-.3h-.04Z"/>
  <path class="st0" d="M397.75,339.84h-.71l1.64,9.19h.71l-1.64-9.02v-.17h0Z"/>
  <path class="st0" d="M400.43,348.95h.75l-.82-9.36h-.75l.82,9.36Z"/>
  <path class="st0" d="M402.6,339.42h-.78v9.36h.63v-9.23l.15-.13h0Z"/>
  <path class="st0" d="M403.46,348.82h.75l.82-9.48h-.78l-.78,9.48h0Z"/>
  <path class="st0" d="M405.66,349.33h0l1.64-9.31h-.75l-1.6,9.27.56.21"/>
  <path class="st0" d="M409.84,340.95l-.71-.26-2.61,8.72h0l.71.21,2.57-8.51v-.17h.04Z"/>
  <path class="st0" d="M412.26,342.01l-.67-.34-3.32,8.51h0l.67.38,3.28-8.51h0l.04-.04Z"/>
  <polygon class="st0" points="413.5 342.74 409.54 350.73 409.47 350.94 410.1 351.37 414.13 343.16 413.5 342.74"/>
  <path class="st0" d="M410.73,351.75h0l.6.55,5-7.4h0l-.6-.51-5,7.36Z"/>
  <polygon class="st0" points="412 352.99 412.56 353.58 418.05 346.78 418.2 346.61 417.6 346.05 412 352.99"/>
  <polygon class="st0" points="413.16 354.26 413.64 354.9 419.8 348.61 419.32 347.97 413.16 354.26"/>
  <path class="st0" d="M414.35,355.71h0c0,.26.34.43.49.68l6.49-5.49h0l-.45-.68-6.53,5.49h0Z"/>
  <path class="st0" d="M415.21,357.07h0l.34.77,7.2-4.59h0l-.37-.72-7.16,4.55h0Z"/>
  <path class="st0" d="M416,358.77h0l.34.77,7.46-3.74h.19l-.34-.77-7.65,3.74Z"/>
  <path class="st0" d="M416.44,360.6l.22.81,7.46-2.98h.19l-.26-.81-7.61,2.98Z"/>
  <path class="st0" d="M416.85,362.17c.07.26.15.55.19.81l8.1-2.08v-.81l-8.28,2.08Z"/>
  <path class="st0" d="M417.12,363.92v.89l7.99-.85h0v-.85l-7.99.81h0Z"/>
  <path class="st0" d="M417.34,366.21v.26h8.17v-.85h-8.25v.6"/>
  <path class="st0" d="M417.04,369.32v.85l7.91,2.04v-.85l-7.91-2.04Z"/>
  <path class="st0" d="M425.29,369.4v-.85l-8.17-1.02h0v.68l7.99.98.19.21Z"/>
  <path class="st0" d="M424.13,374.84l.26-.85-7.46-2.85h-.19l-.22.77,7.46,2.85.15.09Z"/>
  <path class="st0" d="M416,372.85c-.11.3-.22.55-.34.81l7.24,3.7h.19l.3-.77-7.39-3.74h0Z"/>
  <path class="st0" d="M415.1,375.1l6.87,4.68h0l.37-.77-7.02-4.59c0,.26-.22.51-.37.72"/>
  <path class="st0" d="M414.2,376.63l10.22,8.51.45-.68-10.19-8.51c-.15.26-.3.47-.49.68"/>
  <path class="st0" d="M413.61,377.44c-.15.26-.3.47-.49.68l18.92,19.65h0l.52-.64-18.96-19.73h0v.04Z"/>
  <path class="st0" d="M412,379.31l12.87,17.01.6-.55-12.87-17.01h0l-.45.38h0"/>
  <path class="st0" d="M410.85,380.42l14.55,21.9.6-.51-14.59-22.03-.56.55"/>
  <path class="st0" d="M409.32,381.39l10.15,19.69v.21l.67-.47-10.22-19.82-.67.38"/>
  <path class="st0" d="M408.01,382.24l9.33,23.14h0l.67-.34-9.4-23.39-.67.43"/>
  <path class="st0" d="M406.37,382.8l3.99,13.82h0l.71-.3-4.07-13.95-.71.21"/>
  <path class="st0" d="M404.8,383.31l4.85,23.6h.75l-4.85-23.6-.75.21"/>
  <path class="st0" d="M332.03,540.11s-2.35,3.1-1.04,5.74c1.27,1.83,3.62,2.17,5.22.72.22-.21.45-.43.63-.72,0,0-5.67,0-4.81-5.74"/>
  <path class="st0" d="M467.79,545.85c1.27,1.83,3.62,2.17,5.22.72.22-.21.45-.43.63-.72,1.31-2.64-1.04-5.74-1.04-5.74.86,5.83-4.81,5.74-4.81,5.74"/>
  <path class="st0" d="M353.34,536.83l-1.23-.85-3.06,5.83,1.23.85c1.46.85,3.28.21,4.03-1.49.67-1.53.26-3.4-.97-4.34"/>
  <path class="st0" d="M363.27,542.74c-1.49-.89-3.36-.26-4.14,1.45s-.22,3.83,1.27,4.72,3.36.26,4.14-1.45c0-.09.07-.13.07-.21.71-1.66.11-3.66-1.34-4.51h0"/>
  <path class="st0" d="M397.71,552.91c-1.57-.13-2.95,1.23-3.06,3.06v.17c-.26,1.83.86,3.49,2.43,3.78,1.6.3,3.06-.98,3.32-2.76,0-.21.04-.43,0-.68.15-1.79-1.01-3.4-2.61-3.57h-.11"/>
  <path class="st0" d="M425.7,553.33l-1.68.51.67,2.98,1.72-.51c.67-.13,1.16-.89,1.01-1.7,0-.04,0-.13-.04-.17-.15-.81-.86-1.32-1.57-1.15h-.11"/>
  <path class="st0" d="M426.18,550.74c-.11-.68-.67-1.11-1.27-1.02-.07,0-.15,0-.19.09l-1.53.47.56,2.59,1.6-.47c.6-.17.97-.85.86-1.53v-.13"/>
  <path class="st0" d="M437.04,545.3c-.37,0-.75.13-1.08.3l-1.16.55,1.04,2.93,1.46-.64c.67-.26,1.04-1.11.86-1.87,0-.09-.07-.17-.11-.26-.15-.55-.52-.94-1.01-1.02"/>
  <path class="st0" d="M447.23,541.09l.45,2.98,2.09-1.32-1.98-2-.78-.98h0s0,.85.26,1.32"/>
  <path class="st0" d="M469.66,541.72l-2.5-1.06c1.72-.81,3.62-.98,5.45-.55l-3.06-3.1c-6.19-6.38-15.22-7.7-22.61-3.32-27.32,19.39-61.94,19.39-89.26,0-7.39-4.38-16.42-3.06-22.61,3.32l-3.02,3.1c1.83-.43,3.73-.26,5.45.55l-2.5,1.06c3.17,1.45,1.87,4.25,1.87,4.25l3.73-3.91c5.86,2.76,11.53,6,16.98,9.65,27.84,17.18,61.42,17.18,89.26,0,5.45-3.66,11.12-6.89,16.98-9.65l3.73,3.91s-1.31-2.68,1.87-4.25M349.61,543.64l-2.24-1.49,3.99-7.74,2.24,1.53c1.83,1.06,2.57,3.61,1.68,5.7-.07.13-.15.3-.22.43-.93,2.08-3.17,2.93-5,1.87-.15-.09-.3-.17-.45-.3M355.21,547.21l-1.01-.6,3.73-7.87.97.6-3.69,7.87h0ZM359.95,550.1c-2.02-1.11-2.87-3.87-1.9-6.17h0c.93-2.34,3.4-3.36,5.45-2.3s2.95,3.87,2.02,6.21c-.9,2.34-3.28,3.36-5.3,2.34,0,0-.07,0-.11-.04M371.07,547.42c-.3-.64-.75-1.15-1.34-1.45-.6-.38-1.38-.13-1.72.55v.09c-.6,1.74,3.1,2.85,2.2,5.53-.45,1.32-1.75,1.96-2.91,1.45-.07,0-.15-.09-.22-.13-.9-.38-1.64-1.19-2.05-2.17l.86-.6c.34.77.9,1.36,1.57,1.7.6.34,1.31.13,1.6-.55,0-.04.04-.09.07-.13.63-1.79-3.06-2.98-2.16-5.53.52-1.32,1.9-1.91,3.06-1.36.04,0,.07,0,.11.09.78.3,1.42.94,1.79,1.74l-.82.77h-.04ZM377.6,557.46c-1.57-.3-2.61-2-2.35-3.78,0-.17.07-.3.11-.47l1.31-5.57,1.08.3-1.31,5.61c-.34,1.06.19,2.21,1.12,2.59.11,0,.19.09.3.09.93.38,2.02-.17,2.35-1.23,0-.09.07-.21.07-.3l1.31-5.57,1.08.34-1.31,5.57c-.41,1.79-1.98,2.85-3.55,2.42-.07,0-.15,0-.19-.09M388.83,559.88l-1.04-.21-2.57-6.46c-.19-.47-.34-.94-.45-1.4h0v1.28l-.9,5.78-1.08-.26,1.38-8.85h1.08l2.54,6.46c.19.47.34.94.45,1.4h0v-1.32l.93-5.74h1.08l-1.42,9.31h0ZM391.81,560.27h-1.12l.93-8.89h1.12l-.93,8.89ZM397.26,560.9c-2.2-.17-3.88-2.38-3.73-4.89h0c.15-2.51,2.05-4.42,4.25-4.25h0c2.05,0,3.73,1.87,3.77,4.21v.55c-.04,2.51-1.87,4.51-4.07,4.47h-.15M408.08,560.95l-3.73-5.66c-.3-.47-.71-1.23-.71-1.23h0v1.28l.22,5.83h-1.12l-.3-8.93h1.08l3.73,5.66c.3.47.71,1.28.71,1.28h0v-1.28l-.22-5.83h1.12l.3,8.93h-1.08v-.04ZM415.55,560.1l-1.23-8.85h1.08l1.08,7.78,3.47-.64v1.06l-4.4.64h0ZM421.03,559.03l-1.6-8.8,1.08-.26,1.6,8.8-1.08.26ZM426.71,557.5l-2.72.81-2.02-8.51,2.69-.81c1.04-.47,2.2.09,2.65,1.23,0,.09.07.21.07.3.19.77,0,1.62-.52,2.17h0c.86.09,1.57.81,1.72,1.74.34,1.32-.34,2.72-1.49,3.1-.11,0-.22.09-.37.09M430.66,556.4l-2.5-8.51,4.37-1.66.3,1.06-3.28,1.23.75,2.68,2.69-1.02.3,1.06-2.65.98.78,2.76,3.47-1.32.3,1.02-4.52,1.7h0ZM440.59,552.14l-2.72-2.64-1.57.72,1.19,3.32-1.04.47-2.91-8.29,2.24-1.02c.45-.26.93-.43,1.42-.47.93,0,1.72.72,2.02,1.7.41.98.19,2.13-.52,2.85h0l.37.3,2.65,2.51-1.12.55h0ZM444.32,550.14l-2.95-7.14-2.43,1.32-.41-.98,5.9-3.19.41,1.02-2.46,1.32,2.95,7.1-1.01.55h0ZM452.23,545.47l-1.79-1.83-2.61,1.62.41,2.72-1.01.6-1.27-9.44,1.04-.64,6.23,6.38-1.01.6h0ZM456.26,542.74l-2.24,1.57-4.14-7.61,2.2-1.57c1.75-1.49,4.22-1.11,5.56.85,1.31,2,.97,4.81-.75,6.34-.19.17-.37.3-.6.43"/>
  <path class="st0" d="M452.53,535.98l-1.23.85,3.17,5.78,1.19-.85c1.38-1.06,1.72-3.19.78-4.72-.86-1.45-2.57-1.91-3.92-1.06"/>
</svg>